<svg width="20" height="22" viewBox="0 0 20 22" fill="none" xmlns="http://www.w3.org/2000/svg">
<path fill-rule="evenodd" clip-rule="evenodd" d="M11.6543 15.6953L12.3166 17.2407C12.4797 17.6215 12.9206 17.7978 13.3014 17.6347C13.6821 17.4715 13.8585 17.0306 13.6953 16.6499L11.2878 11.0326C11.0658 10.5144 10.5533 10.1953 10.0059 10.1953C9.4586 10.1953 8.94615 10.5141 8.72418 11.0323L6.31657 16.6499C6.1534 17.0306 6.32977 17.4715 6.71049 17.6347C7.09121 17.7978 7.53212 17.6215 7.69529 17.2408L8.35762 15.6953H11.6543ZM10.0059 11.8494L9.00049 14.1953H11.0114L10.0059 11.8494Z" fill="#1B8354"/>
<path fill-rule="evenodd" clip-rule="evenodd" d="M16.497 0.25L4.30767 0.25002C3.75923 0.25002 3.05333 0.325414 2.4569 0.763222C1.69708 1.32097 1.00224 2.23271 0.80499 3.33131C0.756572 3.60099 0.739268 3.87593 0.756216 4.15303L0.756103 4.16833L0.789651 17.0923L0.790665 17.1113C0.862597 18.4587 1.35869 19.6246 2.19921 20.4576C3.04164 21.2925 4.18751 21.75 5.47246 21.75H14.5026C17.1283 21.75 19.25 19.6112 19.25 16.9812V9.52727C19.25 8.16935 18.8444 7.26373 18.1308 6.74415C17.465 6.2594 16.6909 6.24082 16.2835 6.24082H16.2557V5.44531C16.2557 4.20266 15.2483 3.19531 14.0057 3.19531H5.50574C5.09152 3.19531 4.75574 3.5311 4.75574 3.94531C4.75574 4.35953 5.09152 4.69531 5.50574 4.69531H14.0057C14.4199 4.69531 14.7557 5.03111 14.7557 5.44531V6.24082H4.72692C4.0688 6.24082 3.50964 6.07392 3.14412 5.72678C2.31827 4.94244 2.1733 4.19836 2.28138 3.59639C2.3978 2.94799 2.83061 2.34965 3.34451 1.97242C3.5515 1.82047 3.86219 1.75002 4.30767 1.75002L16.497 1.75C16.9112 1.75 17.247 1.41421 17.247 1C17.247 0.585785 16.9112 0.25 16.497 0.25ZM2.28955 17.0496L2.26333 6.94946C2.99065 7.55226 3.91344 7.74082 4.72692 7.74082H16.2835C16.6696 7.74082 17.0037 7.77903 17.2478 7.95678C17.4441 8.0997 17.75 8.46231 17.75 9.52727V16.9812C17.75 18.7903 16.2923 20.25 14.5026 20.25H5.47246C4.55381 20.25 3.79655 19.9288 3.2551 19.3922C2.71498 18.8569 2.3476 18.0647 2.28955 17.0496Z" fill="#1B8354"/>
</svg>
