<svg width="13" height="74" viewBox="0 0 13 74" fill="none" xmlns="http://www.w3.org/2000/svg">
<path d="M6.5 73.3301L12.2735 63.3301L0.726494 63.3301L6.5 73.3301ZM6.5 33.8301L5.5 33.8301L5.5 64.3301L6.5 64.3301L7.5 64.3301L7.5 33.8301L6.5 33.8301ZM7.5 32.8301L8.5 32.8301L8.5 4.34732e-08L7.5 0L6.5 -4.34732e-08L6.5 32.8301L7.5 32.8301ZM7 33.3301L7.00001 34.3301C7.82843 34.3301 8.5 33.6585 8.5 32.8301L7.5 32.8301L6.5 32.8301C6.5 32.5539 6.72385 32.3301 6.99999 32.3301L7 33.3301ZM6.5 33.8301L7.5 33.8301C7.5 34.1062 7.27614 34.3301 7.00001 34.3301L7 33.3301L6.99999 32.3301C6.17157 32.3301 5.5 33.0017 5.5 33.8301L6.5 33.8301Z" fill="#1B8354"/>
</svg>
