<svg width="24" height="24" viewBox="0 0 24 24" fill="none" xmlns="http://www.w3.org/2000/svg">
<path d="M12.75 12C12.75 11.5858 12.4142 11.25 12 11.25C11.5858 11.25 11.25 11.5858 11.25 12V14.25H9C8.58579 14.25 8.25 14.5858 8.25 15C8.25 15.4142 8.58579 15.75 9 15.75H11.25V18C11.25 18.4142 11.5858 18.75 12 18.75C12.4142 18.75 12.75 18.4142 12.75 18V15.75H15C15.4142 15.75 15.75 15.4142 15.75 15C15.75 14.5858 15.4142 14.25 15 14.25H12.75V12Z" fill="#067647"/>
<path fill-rule="evenodd" clip-rule="evenodd" d="M6.75 2C6.75 1.58579 6.41421 1.25 6 1.25C5.58579 1.25 5.25 1.58579 5.25 2V2.63479C4.44524 2.86288 3.7665 3.2336 3.20154 3.84436C2.42363 4.68535 2.07785 5.74792 1.91225 7.07951C1.74998 8.3843 1.74999 10.0565 1.75 12.19V12.81C1.74999 14.9435 1.74998 16.6157 1.91225 17.9205C2.07785 19.2521 2.42363 20.3147 3.20154 21.1556C3.98714 22.0049 4.99276 22.3901 6.25129 22.573C7.46932 22.75 9.02555 22.75 10.9892 22.75H13.0108C14.9745 22.75 16.5307 22.75 17.7487 22.573C19.0072 22.3901 20.0129 22.0049 20.7985 21.1556C21.5764 20.3147 21.9222 19.2521 22.0878 17.9205C22.25 16.6157 22.25 14.9435 22.25 12.8099V12.1901C22.25 10.0565 22.25 8.38431 22.0878 7.07951C21.9222 5.74792 21.5764 4.68535 20.7985 3.84436C20.2335 3.2336 19.5548 2.86288 18.75 2.63479V2C18.75 1.58579 18.4142 1.25 18 1.25C17.5858 1.25 17.25 1.58579 17.25 2V2.36589C16.1139 2.24997 14.716 2.24998 13.0108 2.25H10.9892C9.28402 2.24998 7.88606 2.24997 6.75 2.36589V2ZM4.30269 4.86292C4.56203 4.58256 4.87129 4.36791 5.2786 4.20584C5.36806 4.51998 5.65717 4.75 6 4.75C6.41421 4.75 6.75 4.41421 6.75 4V3.87459C7.81101 3.75156 9.18237 3.75 11.05 3.75H12.95C14.8176 3.75 16.189 3.75156 17.25 3.87459V4C17.25 4.41421 17.5858 4.75 18 4.75C18.3428 4.75 18.6319 4.51998 18.7214 4.20585C19.1287 4.36791 19.438 4.58256 19.6973 4.86292C20.1696 5.37347 20.4495 6.07336 20.5974 7.25H3.40261C3.55052 6.07336 3.83044 5.37347 4.30269 4.86292ZM3.28892 8.75H20.7111C20.7495 9.70689 20.75 10.8508 20.75 12.2432V12.7568C20.75 14.9551 20.7486 16.5339 20.5992 17.7354C20.4518 18.9208 20.1715 19.6244 19.6973 20.1371C19.2308 20.6414 18.6027 20.9331 17.533 21.0886C16.4352 21.2481 14.9881 21.25 12.95 21.25H11.05C9.01188 21.25 7.56476 21.2481 6.46704 21.0886C5.39728 20.9331 4.76921 20.6414 4.30269 20.1371C3.82849 19.6244 3.54821 18.9208 3.40078 17.7354C3.25137 16.5339 3.25 14.9551 3.25 12.7568V12.2432C3.25 10.8508 3.25055 9.70689 3.28892 8.75Z" fill="#067647"/>
</svg>
