<svg width="20" height="22" viewBox="0 0 20 22" fill="none" xmlns="http://www.w3.org/2000/svg">
<path fill-rule="evenodd" clip-rule="evenodd" d="M1.76355 9.52321C2.01053 5.18874 5.60368 1.75 10 1.75C14.3963 1.75 17.9895 5.18874 18.2365 9.52321C17.3882 8.73326 16.2505 8.25 15 8.25C13.4812 8.25 12.25 9.48122 12.25 11V15C12.25 16.5188 13.4812 17.75 15 17.75C16.2516 17.75 17.3902 17.2659 18.2387 16.4747C18.2325 16.7234 18.2228 16.9459 18.208 17.1485C18.1669 17.7071 18.0889 18.0557 17.9637 18.3338C17.6378 19.058 17.058 19.6378 16.3338 19.9637C16.0557 20.0889 15.7071 20.1669 15.1485 20.208C14.5824 20.2495 13.8614 20.25 12.8462 20.25H10C9.58579 20.25 9.25 20.5858 9.25 21C9.25 21.4142 9.58579 21.75 10 21.75H12.8757C13.8548 21.75 14.6308 21.75 15.2583 21.7039C15.8996 21.6569 16.4446 21.5587 16.9495 21.3315C18.0078 20.8552 18.8552 20.0078 19.3315 18.9495C19.5587 18.4446 19.6569 17.8996 19.7039 17.2583C19.75 16.6308 19.75 15.8549 19.75 14.8758V10C19.75 4.61522 15.3848 0.25 10 0.25C4.61522 0.25 0.25 4.61522 0.25 10V13C0.25 15.6234 2.37665 17.75 5 17.75C6.51878 17.75 7.75 16.5188 7.75 15V11C7.75 9.48122 6.51878 8.25 5 8.25C3.74946 8.25 2.61179 8.73326 1.76355 9.52321ZM1.75 13C1.75 14.7949 3.20507 16.25 5 16.25C5.69036 16.25 6.25 15.6904 6.25 15V11C6.25 10.3096 5.69036 9.75 5 9.75C3.20507 9.75 1.75 11.2051 1.75 13ZM18.25 13C18.25 11.2051 16.7949 9.75 15 9.75C14.3096 9.75 13.75 10.3096 13.75 11V15C13.75 15.6904 14.3096 16.25 15 16.25C16.7949 16.25 18.25 14.7949 18.25 13Z" fill="#067647"/>
</svg>
