<svg width="22" height="22" viewBox="0 0 22 22" fill="none" xmlns="http://www.w3.org/2000/svg">
<path d="M15 13.25C15.4142 13.25 15.75 12.9142 15.75 12.5C15.75 12.0858 15.4142 11.75 15 11.75H7C6.58579 11.75 6.25 12.0858 6.25 12.5C6.25 12.9142 6.58579 13.25 7 13.25H15Z" fill="#1B8354"/>
<path d="M11 8.25C11.4142 8.25 11.75 7.91421 11.75 7.5C11.75 7.08579 11.4142 6.75 11 6.75H7C6.58579 6.75 6.25 7.08579 6.25 7.5C6.25 7.91421 6.58579 8.25 7 8.25H11Z" fill="#1B8354"/>
<path fill-rule="evenodd" clip-rule="evenodd" d="M13.0564 0.75H8.94358C7.10583 0.749985 5.65019 0.749972 4.51098 0.903136C3.33856 1.06076 2.38961 1.39288 1.64124 2.14124C0.892881 2.88961 0.560764 3.83856 0.403136 5.01098C0.249972 6.15019 0.249985 7.60582 0.25 9.44357V10.0564C0.249985 11.8942 0.249972 13.3498 0.403136 14.489C0.560764 15.6614 0.892881 16.6104 1.64124 17.3588C2.2938 18.0113 3.16653 18.4182 4.20554 18.6261C4.15328 18.976 4.12848 19.3508 4.17661 19.7076C4.23587 20.1469 4.4178 20.6316 4.86769 20.9667L4.8745 20.9716C5.42468 21.3718 6.05474 21.2687 6.5611 21.1052C7.06411 20.9428 7.68959 20.6378 8.42573 20.2788L8.47858 20.253C8.66498 20.1621 8.84756 20.0714 9.02731 19.982C9.95544 19.5206 10.8084 19.0966 11.722 18.8861C12.0923 18.8018 12.4821 18.7621 13.0084 18.75H13.0564C14.8942 18.75 16.3498 18.75 17.489 18.5969C18.6614 18.4392 19.6104 18.1071 20.3588 17.3588C21.1071 16.6104 21.4392 15.6614 21.5969 14.489C21.75 13.3498 21.75 11.8942 21.75 10.0565V9.44359C21.75 7.60585 21.75 6.15018 21.5969 5.01098C21.4392 3.83856 21.1071 2.88961 20.3588 2.14124C19.6104 1.39288 18.6614 1.06076 17.489 0.903136C16.3498 0.749972 14.8942 0.749985 13.0564 0.75ZM5.97438 17.6322C5.92368 17.8117 5.87395 17.9922 5.82918 18.1709C5.82737 18.1787 5.82544 18.1864 5.82339 18.1941C5.78247 18.3588 5.74591 18.5219 5.71685 18.681C5.65372 19.0267 5.6358 19.3044 5.66315 19.5071C5.68396 19.6614 5.72301 19.7234 5.7478 19.7495C5.78544 19.7524 5.88587 19.747 6.10026 19.6777C6.48912 19.5522 7.01766 19.2965 7.82115 18.9047C7.98311 18.8258 8.14918 18.7429 8.31907 18.6581C9.24435 18.1965 10.2832 17.6781 11.3863 17.4241L11.388 17.4238C11.8927 17.3088 12.3933 17.2633 12.9833 17.2502L12.9916 17.25H13C14.9068 17.25 16.2615 17.2484 17.2892 17.1102C18.2952 16.975 18.8749 16.7213 19.2981 16.2981C19.7213 15.8749 19.975 15.2952 20.1102 14.2892C20.2484 13.2615 20.25 11.9068 20.25 10V9.5C20.25 7.59318 20.2484 6.23851 20.1102 5.21085C19.975 4.20476 19.7213 3.62511 19.2981 3.2019C18.8749 2.77869 18.2952 2.52503 17.2892 2.38976C16.2615 2.25159 14.9068 2.25 13 2.25H9C7.09318 2.25 5.73851 2.25159 4.71085 2.38976C3.70476 2.52503 3.12511 2.77869 2.7019 3.2019C2.27869 3.62511 2.02503 4.20476 1.88976 5.21085C1.75159 6.23851 1.75 7.59318 1.75 9.5V10C1.75 11.9068 1.75159 13.2615 1.88976 14.2892C2.02503 15.2952 2.27869 15.8749 2.7019 16.2981C3.09991 16.6961 3.69415 17.0015 4.54776 17.1648L4.58204 17.044C4.66396 16.7558 4.72847 16.5289 4.76529 16.3493C4.84851 15.9436 5.24491 15.6821 5.65067 15.7653C6.05644 15.8485 6.31792 16.2449 6.23471 16.6507C6.18548 16.8907 6.10155 17.1854 6.02008 17.4713L5.97438 17.6322ZM5.72919 19.7457C5.7296 19.7453 5.73361 19.7459 5.74003 19.7487C5.732 19.7476 5.72879 19.7462 5.72919 19.7457Z" fill="#1B8354"/>
</svg>
