<svg width="22" height="22" viewBox="0 0 22 22" fill="none" xmlns="http://www.w3.org/2000/svg">
<path d="M10.4079 21.752C8.1979 21.752 5.8799 21.696 4.2499 21.601C2.8879 21.521 1.7809 20.818 1.0499 19.566C0.468896 18.57 0.260883 17.456 0.260883 16.744C0.245113 15.4913 0.249737 12.9942 0.254661 10.3355L0.254877 10.219C0.257877 8.79698 0.260883 7.32597 0.260883 5.96497C0.260883 1.30297 3.19088 0.557991 4.48388 0.456991C4.74488 0.419991 6.61987 0.170981 9.02587 0.271981C9.43987 0.288981 9.76089 0.638987 9.74389 1.05299C9.72689 1.46699 9.37788 1.78798 8.96288 1.77098C6.57188 1.67098 4.6939 1.94298 4.6749 1.94598C4.6569 1.94898 4.63789 1.95099 4.61889 1.95199C3.31489 2.04599 1.75991 2.81898 1.75991 5.96598C1.75991 7.32798 1.7569 8.79998 1.7539 10.223L1.75302 10.6933C1.74828 13.2118 1.7439 15.5391 1.75991 16.735C1.75991 17.422 2.19688 19.979 4.33588 20.104C7.40288 20.282 12.9279 20.322 15.4549 20.105C15.4582 20.105 15.4615 20.1048 15.4649 20.1044L15.4759 20.103C15.4989 20.102 17.7669 19.947 18.0269 17.709C18.2879 15.464 18.2699 13.826 18.2629 13.209C18.2629 13.1632 18.2622 13.1229 18.2617 13.0878C18.2613 13.0608 18.2609 13.0369 18.2609 13.016C18.2609 12.602 18.5969 12.266 19.0109 12.266C19.4249 12.266 19.7609 12.602 19.7609 13.016C19.7609 13.06 19.7609 13.119 19.7629 13.192L19.763 13.201C19.7701 13.8509 19.7886 15.5539 19.5169 17.882C19.1949 20.655 16.8029 21.525 15.5729 21.599C14.3389 21.704 12.4169 21.75 10.4069 21.75L10.4079 21.752Z" fill="#067647"/>
<path d="M14.9802 8.26697H14.9412C14.6712 8.25297 14.4292 8.09498 14.3092 7.85298C13.8762 6.98598 13.4542 6.55198 13.4492 6.54798C13.1562 6.25498 13.1562 5.77999 13.4492 5.48699C13.7422 5.19399 14.2172 5.19399 14.5102 5.48699C14.5462 5.52299 14.7572 5.73997 15.0372 6.14097C15.6882 5.29797 16.7072 4.17299 17.7302 3.80999C18.1202 3.67199 18.5492 3.87597 18.6872 4.26597C18.8252 4.65597 18.6212 5.08498 18.2312 5.22298C17.3812 5.52398 16.1742 7.03597 15.6132 7.91797C15.4752 8.13497 15.2362 8.26597 14.9802 8.26597V8.26697Z" fill="#067647"/>
<path fill-rule="evenodd" clip-rule="evenodd" d="M10.2402 6.01709C10.2402 9.18809 12.8223 11.7671 15.9953 11.7671C19.1683 11.7671 21.7502 9.18809 21.7502 6.01709C21.7502 2.84609 19.1683 0.26709 15.9953 0.26709C12.8223 0.26709 10.2402 2.84609 10.2402 6.01709ZM11.7402 6.01709C11.7402 3.67409 13.6493 1.76709 15.9953 1.76709C18.3413 1.76709 20.2502 3.67409 20.2502 6.01709C20.2502 8.36009 18.3413 10.2671 15.9953 10.2671C13.6493 10.2671 11.7402 8.36009 11.7402 6.01709Z" fill="#067647"/>
<path d="M9.97998 12.7671H5.97998C5.56598 12.7671 5.22998 12.4311 5.22998 12.0171C5.22998 11.6031 5.56598 11.2671 5.97998 11.2671H9.97998C10.394 11.2671 10.73 11.6031 10.73 12.0171C10.73 12.4311 10.394 12.7671 9.97998 12.7671Z" fill="#067647"/>
<path d="M5.97998 16.7671H13.98C14.394 16.7671 14.73 16.4311 14.73 16.0171C14.73 15.6031 14.394 15.2671 13.98 15.2671H5.97998C5.56598 15.2671 5.22998 15.6031 5.22998 16.0171C5.22998 16.4311 5.56598 16.7671 5.97998 16.7671Z" fill="#067647"/>
</svg>
