<svg width="22" height="20" viewBox="0 0 22 20" fill="none" xmlns="http://www.w3.org/2000/svg">
<path d="M8.5 5.25C8.08579 5.25 7.75 5.58579 7.75 6C7.75 6.41421 8.08579 6.75 8.5 6.75L13.5 6.75C13.9142 6.75 14.25 6.41422 14.25 6C14.25 5.58579 13.9142 5.25 13.5 5.25L8.5 5.25Z" fill="#067647"/>
<path d="M8.5 9.25C8.08579 9.25 7.75 9.58579 7.75 10C7.75 10.4142 8.08579 10.75 8.5 10.75H13.5C13.9142 10.75 14.25 10.4142 14.25 10C14.25 9.58579 13.9142 9.25 13.5 9.25H8.5Z" fill="#067647"/>
<path d="M8.5 13.25C8.08579 13.25 7.75 13.5858 7.75 14C7.75 14.4142 8.08579 14.75 8.5 14.75H13.5C13.9142 14.75 14.25 14.4142 14.25 14C14.25 13.5858 13.9142 13.25 13.5 13.25H8.5Z" fill="#067647"/>
<path fill-rule="evenodd" clip-rule="evenodd" d="M13.552 0.250001H8.448C7.54954 0.249973 6.8003 0.249949 6.20552 0.329914C5.57773 0.414319 5.01093 0.59999 4.55546 1.05546C4.09999 1.51093 3.91432 2.07773 3.82992 2.70552C3.80718 2.87459 3.79092 3.05613 3.77928 3.25003C3.18699 3.25043 2.67301 3.2553 2.25416 3.31161C1.76252 3.37771 1.29126 3.52677 0.909015 3.90901C0.526768 4.29126 0.37771 4.76252 0.311611 5.25416C0.249936 5.71289 0.249966 6.28574 0.250002 6.95058V14.0494C0.249966 14.7142 0.249936 15.2871 0.311611 15.7458C0.37771 16.2375 0.526768 16.7087 0.909015 17.091C1.29126 17.4732 1.76252 17.6223 2.25416 17.6884C2.70448 17.7489 3.26476 17.75 3.91408 17.75C4.02314 18.1968 4.21307 18.6022 4.55546 18.9445C5.01093 19.4 5.57773 19.5857 6.20552 19.6701C6.80031 19.7501 7.54953 19.75 8.44801 19.75H13.552C14.4505 19.75 15.1997 19.7501 15.7945 19.6701C16.4223 19.5857 16.9891 19.4 17.4445 18.9445C17.7869 18.6022 17.9769 18.1968 18.0859 17.75C18.7352 17.75 19.2955 17.7489 19.7458 17.6884C20.2375 17.6223 20.7087 17.4732 21.091 17.091C21.4732 16.7087 21.6223 16.2375 21.6884 15.7458C21.7501 15.2871 21.75 14.7143 21.75 14.0494V6.95064C21.75 6.28579 21.7501 5.7129 21.6884 5.25416C21.6223 4.76252 21.4732 4.29126 21.091 3.90901C20.7087 3.52677 20.2375 3.37771 19.7458 3.31161C19.327 3.2553 18.813 3.25043 18.2207 3.25003C18.2091 3.05613 18.1928 2.87459 18.1701 2.70552C18.0857 2.07773 17.9 1.51093 17.4445 1.05546C16.9891 0.59999 16.4223 0.414319 15.7945 0.329915C15.1997 0.249949 14.4505 0.249973 13.552 0.250001ZM2.45403 4.79823C2.75952 4.75716 3.16109 4.75103 3.75003 4.75015L3.75 15.052C3.74999 15.4864 3.74998 15.8859 3.759 16.2499C3.16517 16.249 2.76107 16.2431 2.45403 16.2018C2.12873 16.158 2.02677 16.0874 1.96968 16.0303C1.91258 15.9732 1.84197 15.8713 1.79823 15.546C1.7516 15.1991 1.75001 14.7283 1.75001 14V7C1.75001 6.2717 1.7516 5.80091 1.79823 5.45403C1.84197 5.12873 1.91258 5.02677 1.96968 4.96967C2.02677 4.91258 2.12873 4.84197 2.45403 4.79823ZM18.25 4.75015L18.25 15.052C18.25 15.4863 18.25 15.8859 18.241 16.2499C18.8348 16.249 19.2389 16.2431 19.546 16.2018C19.8713 16.158 19.9732 16.0874 20.0303 16.0303C20.0874 15.9732 20.158 15.8713 20.2018 15.546C20.2484 15.1991 20.25 14.7283 20.25 14V7C20.25 6.2717 20.2484 5.80091 20.2018 5.45403C20.158 5.12873 20.0874 5.02677 20.0303 4.96967C19.9732 4.91258 19.8713 4.84197 19.546 4.79823C19.2405 4.75716 18.8389 4.75103 18.25 4.75015ZM5.61612 2.11612C5.74644 1.9858 5.94393 1.87858 6.4054 1.81654C6.88843 1.7516 7.53599 1.75 8.5 1.75H13.5C14.464 1.75 15.1116 1.7516 15.5946 1.81654C16.0561 1.87858 16.2536 1.9858 16.3839 2.11612C16.5142 2.24644 16.6214 2.44393 16.6835 2.9054C16.7484 3.38843 16.75 4.03599 16.75 5V15C16.75 15.964 16.7484 16.6116 16.6835 17.0946C16.6214 17.5561 16.5142 17.7536 16.3839 17.8839C16.2536 18.0142 16.0561 18.1214 15.5946 18.1835C15.1116 18.2484 14.464 18.25 13.5 18.25H8.5C7.53599 18.25 6.88843 18.2484 6.4054 18.1835C5.94393 18.1214 5.74644 18.0142 5.61612 17.8839C5.4858 17.7536 5.37858 17.5561 5.31654 17.0946C5.2516 16.6116 5.25 15.964 5.25 15V5C5.25 4.03599 5.2516 3.38843 5.31654 2.90539C5.37858 2.44393 5.4858 2.24644 5.61612 2.11612Z" fill="#067647"/>
</svg>
