<svg width="20" height="20" viewBox="0 0 20 20" fill="none" xmlns="http://www.w3.org/2000/svg">
<path fill-rule="evenodd" clip-rule="evenodd" d="M6.49623 6.29632C6.49623 3.3585 9.0176 1.04169 12.0455 1.04169L14.8485 1.04169C15.0648 1.04169 15.2789 1.05156 15.4725 1.09156C15.6712 1.13259 15.8901 1.2136 16.0746 1.38703C16.4378 1.72847 16.4584 2.23179 16.4584 2.59261V4.44447C16.4584 4.80528 16.4378 5.30861 16.0746 5.65005C15.8901 5.82348 15.6712 5.90449 15.4725 5.94552C15.2789 5.98552 15.0648 5.99539 14.8485 5.99539L12.0455 5.99539C11.8099 5.99539 11.6856 6.16588 11.6856 6.29632V7.98613L13.6944 7.98613C13.9716 7.98613 14.2363 7.99984 14.4657 8.05094C14.6948 8.10197 14.9654 8.20706 15.1614 8.45131C15.3625 8.70197 15.4009 8.99317 15.3892 9.23363C15.3778 9.46783 15.3161 9.72059 15.2393 9.97316L14.8173 11.362C14.7304 11.6478 14.6005 12.0048 14.2754 12.2354C13.9597 12.4593 13.5796 12.4769 13.2723 12.4769H11.6856V17.4074C11.6856 17.7682 11.665 18.2716 11.3019 18.613C11.1174 18.7864 10.8985 18.8675 10.6998 18.9085C10.5062 18.9485 10.2921 18.9584 10.0758 18.9584H8.10608C7.88975 18.9584 7.67569 18.9485 7.48204 18.9085C7.28337 18.8675 7.06446 18.7864 6.88 18.613C6.51683 18.2716 6.49623 17.7682 6.49623 17.4074L6.49623 12.4769H5.15154C4.93521 12.4769 4.72114 12.467 4.52749 12.427C4.32883 12.386 4.10992 12.305 3.92545 12.1315C3.56229 11.7901 3.54169 11.2868 3.54169 10.9259V9.53706C3.54169 9.17624 3.56229 8.67291 3.92545 8.33147C4.10992 8.15804 4.32883 8.07703 4.52749 8.036C4.72114 7.99601 4.93521 7.98613 5.15154 7.98613L6.49623 7.98613V6.29632ZM12.0455 2.29169C9.63418 2.29169 7.74623 4.12039 7.74623 6.29632L7.74623 8.61113C7.74623 8.95631 7.46641 9.23613 7.12123 9.23613H5.15154C4.98328 9.23613 4.87576 9.24397 4.80646 9.25535C4.79802 9.31269 4.79169 9.40116 4.79169 9.53706L4.79169 10.9259C4.79169 11.0618 4.79802 11.1503 4.80646 11.2077C4.87576 11.219 4.98328 11.2269 5.15154 11.2269H7.12123C7.46641 11.2269 7.74623 11.5067 7.74623 11.8519L7.74623 17.4074C7.74623 17.5433 7.75257 17.6318 7.76102 17.6891C7.83032 17.7005 7.93783 17.7084 8.10608 17.7084H10.0758C10.244 17.7084 10.3516 17.7005 10.4208 17.6891C10.4293 17.6318 10.4356 17.5433 10.4356 17.4074V11.8519C10.4356 11.5067 10.7154 11.2269 11.0606 11.2269H13.2723C13.4135 11.2269 13.4948 11.2199 13.5434 11.2109C13.5617 11.1745 13.5871 11.1108 13.6213 10.9986L14.0433 9.6097C14.0912 9.45224 14.1178 9.33942 14.1308 9.2595C14.0356 9.24525 13.8962 9.23613 13.6944 9.23613H11.0606C10.7154 9.23613 10.4356 8.95631 10.4356 8.61113L10.4356 6.29632C10.4356 5.404 11.1933 4.74539 12.0455 4.74539L14.8485 4.74539C15.0168 4.74539 15.1243 4.73755 15.1936 4.72617C15.202 4.66884 15.2084 4.58036 15.2084 4.44447V2.59261C15.2084 2.45671 15.202 2.36824 15.1936 2.31091C15.1243 2.29953 15.0168 2.29169 14.8485 2.29169L12.0455 2.29169Z" fill="#161616"/>
</svg>
