<svg width="24" height="24" viewBox="0 0 24 24" fill="none" xmlns="http://www.w3.org/2000/svg">
<path d="M6.94427 3.24976C8.16704 3.24976 8.58429 3.26116 8.93592 3.39302C9.76334 3.7033 10.1264 4.42946 10.6801 5.53698L10.7865 5.74976H7C6.58579 5.74976 6.25 6.08555 6.25 6.49976C6.25 6.91397 6.58579 7.24976 7 7.24976H11.9849C11.9953 7.24998 12.0058 7.24998 12.0162 7.24976H16.75C17.819 7.24976 18.5642 7.25067 19.1387 7.30911C19.7007 7.36627 20.0155 7.47222 20.25 7.62895C20.4957 7.79311 20.7066 8.00405 20.8708 8.24973C21.0176 8.46938 21.1301 8.83119 21.19 9.47917C21.2493 10.1207 21.25 10.9334 21.25 11.9998C21.25 12.414 21.5858 12.7498 22 12.7498C22.4142 12.7498 22.75 12.414 22.75 11.9998V11.9668C22.75 10.9406 22.75 10.0595 22.6836 9.34112C22.6171 8.62158 22.4768 7.95339 22.118 7.41637C21.8444 7.00691 21.4929 6.65534 21.0834 6.38175C20.5613 6.03289 19.9711 5.88604 19.2905 5.81681C18.6312 5.74974 17.8095 5.74975 16.7905 5.74976L12.4635 5.74976L12.0374 4.89747C12.0063 4.83523 11.9747 4.77134 11.9425 4.70612C11.4704 3.75098 10.8581 2.51181 9.4626 1.98852C8.82373 1.74895 8.11205 1.74926 7.08264 1.74972L6.90951 1.74976C6.03077 1.74975 5.32205 1.74974 4.7497 1.8002C4.15996 1.85218 3.64388 1.96214 3.17258 2.22515C2.56533 2.56403 2.06428 3.06509 1.7254 3.67234C1.46238 4.14364 1.35242 4.65972 1.30044 5.24945C1.24998 5.8218 1.24999 6.53053 1.25 7.40926V10.5571C1.24999 12.8655 1.24998 14.6746 1.43975 16.0861C1.63399 17.5308 2.03933 18.6708 2.93414 19.5656C3.72729 20.3588 4.71445 20.7684 5.93898 20.9863C7.14188 21.2003 8.63844 21.2395 10.4967 21.2477C10.9109 21.2495 11.2482 20.9152 11.25 20.501C11.2518 20.0868 10.9175 19.7495 10.5033 19.7477C8.62976 19.7395 7.25862 19.6975 6.20174 19.5095C5.16648 19.3253 4.50178 19.0119 3.9948 18.505C3.42514 17.9353 3.09825 17.1646 2.92637 15.8862C2.75159 14.5862 2.75 12.878 2.75 10.4998V7.44403C2.75 6.52239 2.75068 5.8799 2.79464 5.38117C2.83774 4.8923 2.91794 4.6135 3.03524 4.40331C3.23857 4.03896 3.5392 3.73832 3.90355 3.535C4.11375 3.41769 4.39254 3.3375 4.88141 3.2944C5.38014 3.25044 6.02263 3.24976 6.94427 3.24976Z" fill="#067647"/>
<path d="M14 14.7497C13.5858 14.7497 13.25 15.0855 13.25 15.4997C13.25 15.9139 13.5858 16.2497 14 16.2497H22C22.4142 16.2497 22.75 15.9139 22.75 15.4997C22.75 15.0855 22.4142 14.7497 22 14.7497H14Z" fill="#067647"/>
<path d="M14 17.7497C13.5858 17.7497 13.25 18.0855 13.25 18.4997C13.25 18.9139 13.5858 19.2497 14 19.2497H22C22.4142 19.2497 22.75 18.9139 22.75 18.4997C22.75 18.0855 22.4142 17.7497 22 17.7497H14Z" fill="#067647"/>
<path d="M14.0002 20.7495C13.5859 20.7495 13.2501 21.0852 13.2501 21.4994C13.2501 21.9136 13.5859 22.2495 14.0001 22.2495L18 22.2497C18.4142 22.2497 18.75 21.9139 18.75 21.4997C18.75 21.0855 18.4143 20.7497 18 20.7497L14.0002 20.7495Z" fill="#067647"/>
</svg>
