<svg width="22" height="22" viewBox="0 0 22 22" fill="none" xmlns="http://www.w3.org/2000/svg">
<path fill-rule="evenodd" clip-rule="evenodd" d="M5.49974 4.25C4.2571 4.25 3.24974 5.25736 3.24974 6.5C3.24974 7.74264 4.2571 8.75 5.49974 8.75C6.74238 8.75 7.74974 7.74264 7.74974 6.5C7.74974 5.25736 6.74238 4.25 5.49974 4.25ZM4.74974 6.5C4.74974 6.08579 5.08553 5.75 5.49974 5.75C5.91395 5.75 6.24974 6.08579 6.24974 6.5C6.24974 6.91421 5.91395 7.25 5.49974 7.25C5.08553 7.25 4.74974 6.91421 4.74974 6.5Z" fill="#067647"/>
<path fill-rule="evenodd" clip-rule="evenodd" d="M18.7611 2.08326C13.8539 -0.361119 8.14594 -0.361053 3.23875 2.08326L3.14265 2.13109C2.11166 2.64405 1.37391 3.0111 0.811427 3.91969C0.248348 4.82923 0.248952 5.80754 0.249806 7.19052V14.8097C0.248952 16.1927 0.248348 17.1711 0.811483 18.0807C1.37402 18.9893 2.11183 19.3563 3.1429 19.8693L3.23901 19.9171C8.14604 22.361 13.8537 22.361 18.7607 19.9171L18.8569 19.8693C19.8879 19.3563 20.6257 18.9893 21.1883 18.0807C21.7514 17.1711 21.7508 16.1927 21.7499 14.8097V7.19046C21.7508 5.8075 21.7514 4.82921 21.1883 3.91968C20.6259 3.0111 19.8881 2.64404 18.8572 2.13109L18.7611 2.08326ZM3.90754 3.42591C8.39356 1.19139 13.6063 1.19134 18.0923 3.42591C19.2438 3.9995 19.5943 4.19448 19.9129 4.70923C20.2262 5.21519 20.2499 5.73932 20.2499 7.35575L20.2498 14.7568C19.3153 14.4213 18.356 14.2493 17.3873 14.2501C15.7111 14.2438 14.0714 14.7489 12.5378 15.708C12.1543 15.357 11.7439 15.0271 11.3085 14.7208C8.95409 13.0642 6.01318 12.1954 3.00959 12.2527C2.58885 12.2519 2.16849 12.2682 1.74987 12.3013V7.35581C1.74987 5.73935 1.77357 5.21521 2.08681 4.70925C2.40548 4.19449 2.75597 3.99952 3.90754 3.42591ZM17.3869 15.7501C18.3274 15.7491 19.2715 15.948 20.2026 16.3502C20.1585 16.766 20.074 17.0309 19.9129 17.2911C19.5942 17.8059 19.2437 18.0008 18.092 18.5744C17.1952 19.021 16.2694 19.3784 15.3261 19.6464C14.9075 18.6315 14.3256 17.6794 13.6021 16.8175C14.843 16.0978 16.118 15.7451 17.3832 15.7501L17.3869 15.7501ZM1.74987 13.8065V14.6444C1.74987 16.2609 1.77358 16.7851 2.08684 17.2911C2.40555 17.8059 2.75606 18.0008 3.90772 18.5744C7.03055 20.1297 10.5055 20.6023 13.8423 19.9921C13.1472 18.4312 11.9857 17.0314 10.4453 15.9476C8.36403 14.4832 5.73621 13.6994 3.03078 13.7525L3.01433 13.7527C2.59176 13.7517 2.16971 13.7697 1.74987 13.8065Z" fill="#067647"/>
</svg>
