<svg width="20" height="20" viewBox="0 0 20 20" fill="none" xmlns="http://www.w3.org/2000/svg">
<path fill-rule="evenodd" clip-rule="evenodd" d="M1.04169 3.54169C1.04169 2.16098 2.16098 1.04169 3.54169 1.04169C4.9224 1.04169 6.04169 2.16098 6.04169 3.54169C6.04169 4.9224 4.9224 6.04169 3.54169 6.04169C2.16098 6.04169 1.04169 4.9224 1.04169 3.54169ZM3.54169 2.29169C2.85133 2.29169 2.29169 2.85133 2.29169 3.54169C2.29169 4.23204 2.85133 4.79169 3.54169 4.79169C4.23204 4.79169 4.79169 4.23204 4.79169 3.54169C4.79169 2.85133 4.23204 2.29169 3.54169 2.29169Z" fill="#161616"/>
<path fill-rule="evenodd" clip-rule="evenodd" d="M3.29607 7.29169H3.78732C4.148 7.29165 4.47869 7.29161 4.7477 7.32778C5.04393 7.3676 5.35704 7.46131 5.61456 7.71883C5.87208 7.97635 5.96578 8.28945 6.00561 8.58569C6.04178 8.85469 6.04174 9.18538 6.0417 9.54606L6.0417 16.704C6.04174 17.0647 6.04178 17.3954 6.00561 17.6644C5.96578 17.9606 5.87208 18.2737 5.61456 18.5312C5.35704 18.7887 5.04393 18.8824 4.7477 18.9223C4.47869 18.9584 4.14799 18.9584 3.78731 18.9584H3.29607C2.93539 18.9584 2.6047 18.9584 2.33569 18.9223C2.03945 18.8824 1.72635 18.7887 1.46883 18.5312C1.21131 18.2737 1.1176 17.9606 1.07778 17.6644C1.04161 17.3954 1.04165 17.0647 1.04169 16.704L1.04169 9.54607C1.04165 9.18539 1.04161 8.8547 1.07778 8.58569C1.1176 8.28945 1.21131 7.97635 1.46883 7.71883C1.72635 7.46131 2.03945 7.3676 2.33569 7.32778C2.6047 7.29161 2.93539 7.29165 3.29607 7.29169ZM2.35272 8.60272L2.35475 8.60158C2.35636 8.60074 2.35913 8.59939 2.36333 8.59766C2.38148 8.59019 2.42178 8.57745 2.50225 8.56663C2.67785 8.54302 2.92285 8.54169 3.33336 8.54169H3.75003C4.16053 8.54169 4.40554 8.54302 4.58114 8.56663C4.66161 8.57745 4.70191 8.59019 4.72006 8.59766C4.72426 8.59939 4.72702 8.60074 4.72863 8.60158L4.73066 8.60272L4.73181 8.60475C4.73265 8.60636 4.734 8.60913 4.73573 8.61333C4.74319 8.63148 4.75594 8.67178 4.76676 8.75225C4.79037 8.92785 4.79169 9.17285 4.79169 9.58336L4.79169 16.6667C4.79169 17.0772 4.79037 17.3222 4.76676 17.4978C4.75594 17.5783 4.74319 17.6186 4.73573 17.6367C4.734 17.6409 4.73265 17.6437 4.73181 17.6453L4.73066 17.6473L4.72863 17.6485C4.72702 17.6493 4.72426 17.6507 4.72006 17.6524C4.70191 17.6599 4.6616 17.6726 4.58114 17.6834C4.40554 17.707 4.16053 17.7084 3.75003 17.7084H3.33336C2.92285 17.7084 2.67785 17.707 2.50225 17.6834C2.42178 17.6726 2.38148 17.6599 2.36333 17.6524C2.35913 17.6507 2.35636 17.6493 2.35475 17.6485L2.35272 17.6473L2.35158 17.6453C2.35074 17.6437 2.34939 17.6409 2.34766 17.6367C2.34019 17.6186 2.32745 17.5783 2.31663 17.4978C2.29302 17.3222 2.29169 17.0772 2.29169 16.6667L2.29169 9.58336C2.29169 9.17285 2.29302 8.92785 2.31663 8.75225C2.32745 8.67178 2.34019 8.63148 2.34766 8.61333C2.34939 8.60913 2.35074 8.60636 2.35158 8.60475L2.35272 8.60272Z" fill="#161616"/>
<path fill-rule="evenodd" clip-rule="evenodd" d="M9.54607 7.29169C9.78739 7.29167 10.7593 7.29165 10.9438 7.30856C11.1433 7.32683 11.3605 7.36884 11.5698 7.49129C11.7858 7.61768 11.9657 7.79754 12.0921 8.01356L12.1021 8.03097C12.7602 7.56627 13.5546 7.29189 14.414 7.29189C16.66 7.29189 18.9584 9.20374 18.9584 11.6669L18.9573 16.288C18.9573 16.6486 18.9572 16.9792 18.921 17.2481C18.8811 17.5443 18.7873 17.8573 18.5298 18.1148C18.2723 18.3722 17.9593 18.4659 17.6631 18.5057C17.3941 18.5419 17.0635 18.5418 16.7029 18.5418H16.2127C15.852 18.5418 15.5213 18.5419 15.2523 18.5057C14.9561 18.4659 14.643 18.3722 14.3855 18.1147C14.1279 17.8571 14.0342 17.544 13.9944 17.2478C13.9582 16.9788 13.9583 16.6481 13.9583 16.2874L13.9583 12.5001C13.9583 12.1189 13.6763 11.8751 13.4066 11.8751C12.9756 11.8751 12.7439 12.0404 12.5846 12.3048C12.3974 12.6157 12.2917 13.1074 12.2917 13.7501L12.2917 16.704C12.2918 17.0647 12.2918 17.3954 12.2556 17.6644C12.2158 17.9606 12.1221 18.2737 11.8646 18.5312C11.607 18.7887 11.2939 18.8825 10.9977 18.9223C10.7287 18.9584 10.398 18.9584 10.0373 18.9584H9.54605C9.18538 18.9584 8.85469 18.9584 8.58569 18.9223C8.28945 18.8824 7.97635 18.7887 7.71883 18.5312C7.46131 18.2737 7.3676 17.9606 7.32778 17.6644C7.29161 17.3954 7.29165 17.0647 7.29169 16.704L7.29169 9.54607C7.29165 9.18539 7.29161 8.8547 7.32778 8.58569C7.3676 8.28945 7.46131 7.97635 7.71883 7.71883C7.97635 7.46131 8.28945 7.3676 8.58569 7.32778C8.8547 7.29161 9.18539 7.29165 9.54607 7.29169ZM9.58335 8.54169C9.17285 8.54169 8.92784 8.54301 8.75224 8.56662C8.69586 8.56443 8.57979 8.59848 8.56662 8.75224C8.54301 8.92784 8.54169 9.17285 8.54169 9.58335L8.54169 16.6667C8.54169 17.0772 8.54301 17.3222 8.56662 17.4978C8.57668 17.5994 8.69456 17.6639 8.75224 17.6834C8.92784 17.707 9.17285 17.7084 9.58335 17.7084H10C10.4105 17.7084 10.6555 17.707 10.8311 17.6834C10.8885 17.6689 11.0059 17.6115 11.0168 17.4978C11.0404 17.3222 11.0417 17.0772 11.0417 16.6667L11.0417 13.7501C11.0417 13.0121 11.1561 12.2539 11.5138 11.6599C11.8996 11.0195 12.5378 10.6251 13.4066 10.6251C14.4367 10.6251 15.2083 11.5007 15.2083 12.5001V16.2501C15.2083 16.6606 15.2096 16.9056 15.2333 17.0812C15.2333 17.2129 15.3129 17.235 15.375 17.2523C15.3915 17.2568 15.4067 17.261 15.4189 17.2668C15.5945 17.2905 15.8395 17.2918 16.25 17.2918L16.6656 17.2918C17.076 17.2918 17.321 17.2905 17.4966 17.2669C17.5544 17.2454 17.6724 17.1783 17.6822 17.0813C17.7058 16.9057 17.7072 16.6608 17.7073 16.2504L17.7084 11.6667C17.7083 9.98782 16.0673 8.54189 14.414 8.54189C13.5161 8.54189 12.7036 8.98091 12.1642 9.69005C12.0018 9.90353 11.7213 9.98958 11.4671 9.9039C11.2129 9.81821 11.0417 9.5799 11.0417 9.31167C11.0417 9.03753 11.0411 8.87417 11.0301 8.75368C11.0232 8.62764 10.8936 8.5676 10.8297 8.55334C10.7092 8.5423 10.5459 8.54169 10.2717 8.54169L9.58335 8.54169Z" fill="#161616"/>
</svg>
