<svg width="18" height="18" viewBox="0 0 18 18" fill="none" xmlns="http://www.w3.org/2000/svg">
<path fill-rule="evenodd" clip-rule="evenodd" d="M12.4936 9.59295C12.3965 9.36004 12.1689 9.20833 11.9166 9.20833C11.6643 9.20833 11.4367 9.36004 11.3397 9.59295L9.25637 14.5929C9.12361 14.9116 9.27428 15.2775 9.59291 15.4103C9.91154 15.543 10.2775 15.3923 10.4102 15.0737L10.9444 13.7917H12.8888L13.423 15.0737C13.5558 15.3923 13.9217 15.543 14.2403 15.4103C14.559 15.2775 14.7096 14.9116 14.5769 14.5929L12.4936 9.59295ZM11.9166 11.4583L12.368 12.5417H11.4652L11.9166 11.4583Z" fill="#161616"/>
<path d="M5.79167 2.54166C6.13685 2.54166 6.41667 2.82149 6.41667 3.16666V3.34626H9C9.34518 3.34626 9.625 3.62608 9.625 3.97126C9.625 4.31644 9.34518 4.59626 9 4.59626H7.99773C7.68952 5.45553 7.2122 6.25932 6.67829 6.98106L7.4296 7.76212C7.6689 8.01089 7.66122 8.40654 7.41245 8.64583C7.16368 8.88513 6.76803 8.87745 6.52873 8.62868L5.88439 7.95882C5.38321 8.52638 4.86711 9.03257 4.40221 9.46006C4.14813 9.6937 3.75275 9.67713 3.51911 9.42304C3.28546 9.16896 3.30204 8.77358 3.55612 8.53994C4.03184 8.1025 4.55199 7.58931 5.04475 7.02011C4.9404 6.886 4.83574 6.74657 4.73785 6.61082C4.54145 6.33845 4.34036 6.03738 4.23767 5.81705C4.09186 5.50419 4.22728 5.13235 4.54014 4.98653C4.85301 4.84072 5.22484 4.97614 5.37066 5.289C5.41797 5.39051 5.55439 5.60603 5.75174 5.87971C5.78129 5.92069 5.8115 5.962 5.8421 6.00332C6.16019 5.54915 6.43793 5.07762 6.65162 4.59626H3.16667C2.82149 4.59626 2.54167 4.31644 2.54167 3.97126C2.54167 3.62608 2.82149 3.34626 3.16667 3.34626H5.16667V3.16666C5.16667 2.82149 5.44649 2.54166 5.79167 2.54166Z" fill="#161616"/>
<path fill-rule="evenodd" clip-rule="evenodd" d="M6.87591 0.0416643H6.95743C8.29265 0.0416543 9.35045 0.0416463 10.1873 0.140565C11.0464 0.242118 11.7537 0.455317 12.3445 0.940165C12.5449 1.10465 12.7287 1.28843 12.8932 1.48886C13.481 2.20516 13.6749 3.10285 13.7465 4.25352C14.8969 4.32506 15.7946 4.51881 16.5111 5.10683C16.7116 5.27132 16.8953 5.4551 17.0598 5.65552C17.5447 6.24631 17.7579 6.95356 17.8594 7.81271C17.9584 8.64954 17.9583 9.70732 17.9583 11.0425V11.1241C17.9583 12.4592 17.9584 13.5171 17.8594 14.354C17.7579 15.2131 17.5447 15.9203 17.0598 16.5111C16.8953 16.7116 16.7116 16.8953 16.5111 17.0598C15.9204 17.5447 15.2131 17.7579 14.354 17.8594C13.5171 17.9583 12.4593 17.9583 11.1242 17.9583H11.0426C9.70742 17.9583 8.64954 17.9583 7.81271 17.8594C6.95357 17.7579 6.24632 17.5447 5.65553 17.0598C5.4551 16.8953 5.27132 16.7116 5.10684 16.5111C4.51898 15.7948 4.32506 14.8972 4.25351 13.7465C3.10285 13.6749 2.20516 13.481 1.48886 12.8932C1.28843 12.7287 1.10465 12.5449 0.940169 12.3445C0.455321 11.7537 0.242122 11.0464 0.140569 10.1873C0.0416501 9.35044 0.0416582 8.29264 0.0416681 6.95742V6.87591C0.0416582 5.54069 0.0416501 4.48289 0.140569 3.64604C0.242122 2.7869 0.455321 2.07965 0.940169 1.48886C1.10465 1.28843 1.28844 1.10465 1.48886 0.940165C2.07965 0.455317 2.7869 0.242118 3.64604 0.140565C4.48289 0.0416463 5.54069 0.0416543 6.87591 0.0416643ZM5.48691 13.3974C5.54375 14.6485 5.70803 15.2733 6.0731 15.7181C6.18564 15.8553 6.31139 15.981 6.44852 16.0936C6.77969 16.3653 7.21831 16.5305 7.95944 16.6181C8.71437 16.7073 9.69824 16.7083 11.0833 16.7083C12.4684 16.7083 13.4523 16.7073 14.2072 16.6181C14.9484 16.5305 15.387 16.3653 15.7181 16.0936C15.8553 15.981 15.981 15.8553 16.0936 15.7181C16.3654 15.387 16.5305 14.9484 16.6181 14.2072C16.7073 13.4523 16.7083 12.4684 16.7083 11.0833C16.7083 9.69824 16.7073 8.71437 16.6181 7.95944C16.5305 7.21831 16.3654 6.77969 16.0936 6.44852C15.981 6.31138 15.8553 6.18564 15.7181 6.07309C15.2756 5.7099 14.6546 5.54526 13.4149 5.4877L5.48691 13.3974ZM12.5139 4.6209C12.4579 3.35758 12.2938 2.72885 11.9269 2.28185C11.8144 2.14472 11.6886 2.01897 11.5515 1.90643C11.2203 1.63464 10.7817 1.46953 10.0406 1.38192C9.28563 1.29269 8.30176 1.29166 6.91667 1.29166C5.53158 1.29166 4.5477 1.29269 3.79278 1.38192C3.05164 1.46953 2.61302 1.63464 2.28185 1.90643C2.14472 2.01897 2.01897 2.14472 1.90643 2.28185C1.63465 2.61302 1.46953 3.05164 1.38193 3.79277C1.29269 4.5477 1.29167 5.53157 1.29167 6.91666C1.29167 8.30176 1.29269 9.28563 1.38193 10.0406C1.46953 10.7817 1.63465 11.2203 1.90643 11.5515C2.01898 11.6886 2.14472 11.8144 2.28185 11.9269C2.72679 12.2921 3.35177 12.4563 4.60343 12.5131L12.5139 4.6209Z" fill="#161616"/>
</svg>
