<svg width="22" height="22" viewBox="0 0 22 22" fill="none" xmlns="http://www.w3.org/2000/svg">
<path d="M13.114 5.28991L13.3315 5.79704C13.4738 6.12871 13.5538 6.31147 13.6296 6.43918C13.6887 6.53888 13.7169 6.55487 13.7308 6.56279L13.7321 6.56355C13.757 6.57781 13.8181 6.60657 14.0106 6.62413C14.2143 6.64271 14.4841 6.64343 14.9111 6.64343H15.0002C15.4145 6.64343 15.7502 6.97922 15.7502 7.39343C15.7502 7.80765 15.4145 8.14343 15.0002 8.14343L14.8796 8.14343C14.4934 8.14345 14.1544 8.14347 13.8744 8.11793C13.5756 8.09068 13.2738 8.02983 12.9861 7.86485C12.6869 7.69334 12.4913 7.46036 12.3395 7.20443C12.2605 7.07133 12.1865 6.91928 12.1137 6.75764L11.2215 9.62793C11.1673 9.8029 11.1037 10.008 11.0275 10.1653C10.954 10.3168 10.7244 10.727 10.2066 10.749C9.70236 10.7704 9.43511 10.3981 9.3461 10.2596C9.25151 10.1124 9.1626 9.91636 9.08531 9.74596L8.73342 8.97142C8.58643 8.64791 8.50379 8.46942 8.42654 8.34465C8.3656 8.24619 8.33697 8.23018 8.32226 8.22195L8.32116 8.22133C8.29589 8.20712 8.23513 8.17921 8.0462 8.16218C7.84611 8.14414 7.58135 8.14343 7.16203 8.14343H7.00024C6.58603 8.14343 6.25024 7.80765 6.25024 7.39343C6.25024 6.97922 6.58603 6.64343 7.00024 6.64343L7.19299 6.64343C7.57218 6.64341 7.90532 6.6434 8.18086 6.66824C8.47504 6.69475 8.77199 6.75394 9.05644 6.91391C9.3518 7.08001 9.54777 7.30606 9.70194 7.55511C9.83055 7.76286 9.94791 8.01823 10.0685 8.28373L10.9686 5.38819C11.0246 5.20748 11.0893 4.99875 11.1662 4.83933C11.2376 4.6912 11.4689 4.26886 11.9959 4.25037C12.5112 4.23228 12.7752 4.62247 12.8596 4.76045C12.952 4.91164 13.0383 5.11298 13.114 5.28991Z" fill="#067647"/>
<path fill-rule="evenodd" clip-rule="evenodd" d="M6.94825 0.750001H15.0522C15.9507 0.749973 16.7 0.749949 17.2947 0.829915C17.9225 0.914319 18.4893 1.09999 18.9448 1.55546C19.4003 2.01093 19.5859 2.57773 19.6703 3.20552C19.7503 3.80031 19.7503 4.54953 19.7502 5.44801V13.3989L20.1618 14.158C20.8879 15.4975 21.3769 16.5637 21.6028 17.4486C21.8348 18.3576 21.8075 19.1495 21.4133 19.8656C20.9725 20.6661 20.1851 20.9782 19.3018 21.1165C18.4481 21.2501 17.3098 21.25 15.9133 21.25H6.08702C4.69053 21.25 3.55214 21.2501 2.6985 21.1165C1.81521 20.9782 1.02774 20.6661 0.586997 19.8656C0.192747 19.1495 0.165399 18.3577 0.397434 17.4487C0.622918 16.5653 1.11046 15.5014 1.83446 14.1653L2.25025 13.3563L2.25025 5.448C2.25022 4.54952 2.25019 3.8003 2.33016 3.20552C2.41456 2.57773 2.60023 2.01093 3.0557 1.55546C3.51117 1.09999 4.07797 0.914319 4.70577 0.829915C5.30054 0.749949 6.04978 0.749973 6.94825 0.750001ZM3.75025 12.75H18.2502V5.5C18.2502 4.53599 18.2487 3.88843 18.1837 3.4054C18.1217 2.94393 18.0144 2.74644 17.8841 2.61612C17.7538 2.4858 17.5563 2.37858 17.0949 2.31654C16.6118 2.2516 15.9643 2.25 15.0002 2.25H7.00025C6.03623 2.25 5.38867 2.2516 4.90564 2.31654C4.44418 2.37858 4.24668 2.4858 4.11636 2.61612C3.98605 2.74644 3.87882 2.94393 3.81678 3.4054C3.75184 3.88843 3.75025 4.53599 3.75025 5.5V12.75ZM3.1648 14.8583L3.47745 14.25H18.5054L18.8431 14.8729C19.5598 16.1949 19.972 17.1248 20.1494 17.8197C20.3207 18.4905 20.2534 18.8621 20.0993 19.1421C19.9916 19.3377 19.7778 19.5237 19.0698 19.6345C18.346 19.7478 17.3263 19.75 15.8455 19.75H6.15475C4.67401 19.75 3.65424 19.7478 2.93044 19.6345C2.22251 19.5237 2.00871 19.3377 1.90101 19.1421C1.74681 18.8621 1.6796 18.4905 1.85083 17.8197C2.0282 17.1248 2.44039 16.1949 3.15709 14.8729L3.1648 14.8583Z" fill="#067647"/>
</svg>
