<svg width="18" height="22" viewBox="0 0 18 22" fill="none" xmlns="http://www.w3.org/2000/svg">
<path fill-rule="evenodd" clip-rule="evenodd" d="M8.99988 4.75C6.92881 4.75 5.24988 6.42893 5.24988 8.5C5.24988 10.5711 6.92881 12.25 8.99988 12.25C11.0709 12.25 12.7499 10.5711 12.7499 8.5C12.7499 6.42893 11.0709 4.75 8.99988 4.75ZM6.74988 8.5C6.74988 7.25736 7.75724 6.25 8.99988 6.25C10.2425 6.25 11.2499 7.25736 11.2499 8.5C11.2499 9.74264 10.2425 10.75 8.99988 10.75C7.75724 10.75 6.74988 9.74264 6.74988 8.5Z" fill="#1B8354"/>
<path fill-rule="evenodd" clip-rule="evenodd" d="M8.99988 0.25C4.52213 0.25 0.749878 4.01857 0.749878 8.5869C0.749878 13.2671 4.6074 16.3945 7.82696 18.4273L7.83989 18.4355L7.85315 18.4431C8.20205 18.644 8.59726 18.75 8.99988 18.75C9.4025 18.75 9.79771 18.644 10.1466 18.4431L10.1582 18.4365L10.1695 18.4294C13.4016 16.4121 17.2499 13.2513 17.2499 8.5869C17.2499 4.01857 13.4776 0.25 8.99988 0.25ZM2.24988 8.5869C2.24988 4.83749 5.36003 1.75 8.99988 1.75C12.6397 1.75 15.7499 4.83749 15.7499 8.5869C15.7499 12.3676 12.6122 15.1344 9.38838 17.1488C9.26892 17.2153 9.1353 17.25 8.99988 17.25C8.865 17.25 8.73192 17.2156 8.61283 17.1496C5.38912 15.1117 2.24988 12.3802 2.24988 8.5869Z" fill="#1B8354"/>
<path d="M16.5344 16.5834C16.3043 16.239 15.8386 16.1463 15.4942 16.3764C15.1497 16.6065 15.057 17.0722 15.2871 17.4166C15.7419 18.0974 16.0217 18.5835 16.1585 18.9586C16.2877 19.3129 16.2565 19.476 16.2066 19.5831C16.1834 19.6329 16.1561 19.6813 16.1247 19.7279C16.0261 19.8744 15.7967 20.0497 15.033 20.1497C14.2792 20.2485 13.2249 20.25 11.7177 20.25H6.28216C4.77496 20.25 3.72064 20.2485 2.96682 20.1497C2.20318 20.0497 1.9738 19.8744 1.87516 19.7279C1.84379 19.6813 1.81646 19.6329 1.79326 19.5831C1.74333 19.476 1.71214 19.3129 1.84136 18.9586C1.97816 18.5835 2.25795 18.0974 2.71273 17.4166C2.94282 17.0722 2.85013 16.6065 2.50569 16.3764C2.16126 16.1463 1.69552 16.239 1.46544 16.5834C1.00634 17.2707 0.635899 17.886 0.432155 18.4447C0.220823 19.0241 0.158769 19.627 0.433696 20.2168C0.490196 20.338 0.556174 20.4546 0.630932 20.5657C1.10683 21.2724 1.90714 21.5237 2.772 21.637C3.63501 21.7501 4.78842 21.75 6.22382 21.75H11.776C13.2114 21.75 14.3649 21.7501 15.2279 21.637C16.0927 21.5237 16.893 21.2724 17.3689 20.5657C17.4437 20.4546 17.5097 20.338 17.5662 20.2168C17.8411 19.627 17.779 19.0241 17.5677 18.4447C17.364 17.886 16.9935 17.2707 16.5344 16.5834Z" fill="#1B8354"/>
</svg>
