<svg width="24" height="24" viewBox="0 0 24 24" fill="none" xmlns="http://www.w3.org/2000/svg">
<path fill-rule="evenodd" clip-rule="evenodd" d="M12.0003 22.248C11.0323 22.248 10.0633 22.235 9.08129 22.21L9.07606 22.2098C5.84537 22.1379 4.06359 22.0982 2.71532 20.751C1.37132 19.42 1.33332 17.696 1.26532 14.567C1.23232 13.042 1.24932 11.567 1.31732 10.057V10.047L1.31757 10.0414C1.36142 9.06274 1.38794 8.47091 1.71532 7.90498C2.04532 7.33198 2.56032 6.99699 3.41532 6.44199L7.17333 3.97402C9.43833 2.49302 10.5733 1.75098 12.0003 1.75098C13.4273 1.75098 14.5623 2.49297 16.8233 3.97197L20.5883 6.44502L20.5948 6.44921C21.4419 7.00071 21.9561 7.33545 22.2853 7.90801C22.6123 8.47501 22.6393 9.068 22.6823 10.05C22.7503 11.569 22.7673 13.044 22.7343 14.568C22.6663 17.698 22.6283 19.422 21.2823 20.755C19.9353 22.1 18.1533 22.14 14.9163 22.212C13.9363 22.237 12.9693 22.25 12.0013 22.25L12.0003 22.248ZM2.76532 14.534C2.79207 15.7721 2.81269 16.7244 2.89768 17.4798L7.54486 14.3136C6.95485 14.037 6.43355 13.659 5.89736 13.27L5.82437 13.217L2.78278 10.9994C2.74549 12.1749 2.73968 13.339 2.76532 14.534ZM2.87108 9.20741C2.89858 8.94841 2.93923 8.78415 3.0143 8.654C3.1593 8.404 3.49229 8.17997 4.23529 7.69697L7.9973 5.22598C10.0093 3.90998 11.0193 3.25 11.9993 3.25C12.9793 3.25 13.9893 3.90995 16.0023 5.22695L19.7663 7.69902C20.5073 8.18002 20.8403 8.40298 20.9853 8.65498C21.0601 8.78417 21.1007 8.94786 21.1282 9.20701L17.2944 12.003L17.2214 12.056C16.3684 12.6743 15.7259 13.14 14.8337 13.233C12.6855 11.9178 11.3125 11.9178 9.16365 13.2329C8.27216 13.1395 7.63032 12.6743 6.7778 12.0563L2.87108 9.20741ZM16.453 14.3143L21.1007 17.4809C21.1859 16.7253 21.2065 15.7727 21.2333 14.534C21.2589 13.3381 21.2538 12.1744 21.2167 10.999L18.1023 13.27L18.1003 13.2715C17.5639 13.6603 17.0427 14.038 16.453 14.3143ZM9.33442 14.91L3.29328 19.0261C3.41787 19.2742 3.57476 19.4906 3.77333 19.687C4.66333 20.577 5.97432 20.64 9.11732 20.71C11.0573 20.76 12.9413 20.76 14.8793 20.71C18.0253 20.64 19.3353 20.576 20.2233 19.689C20.4226 19.4917 20.58 19.2745 20.7049 19.0256L14.6644 14.91C12.3984 13.367 11.6014 13.367 9.33442 14.91Z" fill="#067647"/>
</svg>
