<svg width="22" height="20" viewBox="0 0 22 20" fill="none" xmlns="http://www.w3.org/2000/svg">
<path fill-rule="evenodd" clip-rule="evenodd" d="M10.1426 1.32754L13.5054 2.99964C13.9475 3.21948 14.0676 3.27364 14.1836 3.30096C14.2993 3.32819 14.4296 3.33316 14.9214 3.33316L17.0529 3.33316C17.9506 3.33313 18.7008 3.3331 19.2966 3.41498C19.9275 3.50167 20.4955 3.69257 20.9503 4.15737C21.4028 4.6199 21.5866 5.19379 21.6704 5.83067C21.7501 6.4364 21.75 7.20027 21.75 8.12022V14.9629C21.75 15.8829 21.7501 16.6468 21.6704 17.2525C21.5866 17.8894 21.4028 18.4633 20.9503 18.9258C20.4955 19.3906 19.9275 19.5815 19.2966 19.6682C18.7008 19.7501 17.9506 19.75 17.0529 19.75L14.8595 19.75C14.4632 19.7502 14.1477 19.7504 13.8399 19.6779C13.5324 19.6055 13.2494 19.4646 12.8932 19.2873L9.02368 17.3632C8.06178 16.8849 7.73221 16.7315 7.40338 16.6866C6.65803 16.5848 6.04978 16.9377 5.11822 17.4781L5.06079 17.5114C4.44177 17.8705 3.92741 18.1689 3.5015 18.3612C3.0707 18.5557 2.60335 18.7036 2.11024 18.6156C1.57688 18.5204 1.09802 18.2339 0.758331 17.8125C0.446755 17.4259 0.343265 16.9476 0.296393 16.4715C0.249974 16 0.249986 15.3972 0.250001 14.6681V6.42904C0.249985 5.87788 0.249972 5.4115 0.287464 5.02512C0.327276 4.61482 0.413399 4.23619 0.619978 3.87357C0.827051 3.51009 1.10848 3.24459 1.44084 3.00459C1.75247 2.77956 2.15062 2.54861 2.61869 2.2771L3.90724 1.52962C4.55431 1.15424 5.08426 0.846806 5.54509 0.63397C6.00331 0.422342 6.4375 0.282277 6.91376 0.254905C6.94206 0.251665 6.97084 0.25 7 0.25C7.00952 0.25 7.01901 0.250178 7.02844 0.250529C7.51855 0.241278 7.97052 0.3539 8.45232 0.539791C8.92552 0.722368 9.4736 0.994895 10.1426 1.32754ZM6.17403 1.99575C6.19993 1.98378 6.22524 1.97234 6.25 1.9614L6.25 15.2922C5.57879 15.4701 4.99763 15.8105 4.50512 16.099C4.45026 16.1311 4.3962 16.1628 4.34354 16.1934C3.68001 16.5783 3.23204 16.8371 2.88428 16.9941C2.53331 17.1525 2.41092 17.1456 2.37377 17.1389C2.20144 17.1082 2.042 17.0148 1.9262 16.8712C1.89551 16.8331 1.82787 16.7176 1.78918 16.3246C1.75087 15.9355 1.75 15.4072 1.75 14.6283V6.46368C1.75 5.86863 1.75082 5.47541 1.78045 5.16999C1.80855 4.88041 1.85825 4.73029 1.92332 4.61608C1.98789 4.50273 2.08933 4.38651 2.31898 4.22068C2.5626 4.04476 2.89504 3.85091 3.40192 3.55687L4.62979 2.84458C5.31433 2.44748 5.78409 2.17584 6.17403 1.99575ZM9.5823 15.9658C8.83743 15.595 8.30149 15.3282 7.75 15.2238L7.75 1.87991C7.80152 1.89758 7.85552 1.9173 7.91237 1.93924C8.31256 2.09365 8.79812 2.33424 9.50596 2.68619L12.8932 4.37043C13.0199 4.43353 13.1374 4.49201 13.25 4.54443L13.25 17.7895L9.5823 15.9658ZM14.75 18.2497C14.8017 18.2499 14.8586 18.25 14.9214 18.25H17C17.9645 18.25 18.6107 18.2483 19.0924 18.1821C19.5509 18.1191 19.7471 18.0107 19.8781 17.8768C20.0114 17.7406 20.1205 17.5333 20.1832 17.0569C20.2485 16.5605 20.25 15.8961 20.25 14.9117V8.17148C20.25 7.18709 20.2485 6.52265 20.1832 6.02629C20.1205 5.54987 20.0114 5.34258 19.8781 5.20639C19.7471 5.07248 19.5509 4.96401 19.0924 4.90102C18.6107 4.83482 17.9645 4.83316 17 4.83316L14.8595 4.83318C14.8223 4.8332 14.7858 4.83322 14.75 4.83317V18.2497Z" fill="#1B8354"/>
</svg>
