<svg width="24" height="24" viewBox="0 0 24 24" fill="none" xmlns="http://www.w3.org/2000/svg">
<path d="M14.5395 20.4092C14.8659 20.1544 15.3373 20.2117 15.5922 20.5381C15.8471 20.8645 15.7887 21.3358 15.4623 21.5908C14.5313 22.3181 13.3164 22.75 12.0004 22.75C10.6846 22.7499 9.47041 22.3179 8.53947 21.5908C8.21304 21.3358 8.15461 20.8645 8.40959 20.5381C8.66459 20.2118 9.13593 20.1542 9.46232 20.4092C10.1235 20.9256 11.0114 21.2499 12.0004 21.25C12.9895 21.25 13.8782 20.9257 14.5395 20.4092ZM12.0004 1.25C16.5466 1.25019 20.2748 4.8217 20.2748 9.2793C20.2749 10.3065 20.3458 11.0729 20.8276 11.7627C20.9158 11.8872 21.0095 12.0108 21.1117 12.1465C21.1384 12.1819 21.1658 12.2187 21.1938 12.2559C21.325 12.4305 21.4666 12.6219 21.599 12.8232C21.8617 13.2227 22.1219 13.7088 22.2113 14.2773C22.5036 16.1366 21.1552 17.3239 19.8481 17.8496C15.2058 19.7161 8.79503 19.7161 4.15275 17.8496C2.84546 17.324 1.49722 16.1368 1.78947 14.2773C1.87889 13.7088 2.13816 13.2227 2.4008 12.8232C2.53323 12.6219 2.67487 12.4305 2.80607 12.2559C2.83403 12.2186 2.86142 12.1819 2.8881 12.1465C2.99037 12.0108 3.08407 11.8872 3.17228 11.7627C3.65401 11.0729 3.72492 10.3064 3.72502 9.2793C3.72508 4.82158 7.454 1.25 12.0004 1.25ZM12.0004 2.75C8.23515 2.75 5.22508 5.69651 5.22502 9.2793C5.22492 10.3319 5.17123 11.5213 4.39982 12.624L4.39787 12.627C4.29492 12.7723 4.18378 12.9203 4.07951 13.0586C4.05446 13.0918 4.02933 13.1242 4.00529 13.1562C3.87676 13.3273 3.75888 13.4876 3.65373 13.6475C3.44094 13.9711 3.31223 14.2479 3.27092 14.5107C3.13799 15.3572 3.6916 16.0476 4.71232 16.458C8.99552 18.1801 15.0054 18.1801 19.2885 16.458C20.309 16.0476 20.8619 15.3572 20.7289 14.5107C20.6876 14.2479 20.5589 13.9711 20.3461 13.6475C20.241 13.4876 20.123 13.3273 19.9945 13.1562C19.9705 13.1243 19.9453 13.0918 19.9203 13.0586C19.8161 12.9204 19.7049 12.7723 19.602 12.627L19.6 12.624C18.8286 11.5213 18.7749 10.3319 18.7748 9.2793C18.7748 5.69662 15.7655 2.75019 12.0004 2.75Z" fill="white"/>
</svg>
