<svg width="22" height="20" viewBox="0 0 22 20" fill="none" xmlns="http://www.w3.org/2000/svg">
<path fill-rule="evenodd" clip-rule="evenodd" d="M8 0.25C5.37665 0.25 3.25 2.37665 3.25 5C3.25 7.62335 5.37665 9.75 8 9.75C10.6234 9.75 12.75 7.62335 12.75 5C12.75 2.37665 10.6234 0.25 8 0.25ZM4.75 5C4.75 3.20507 6.20507 1.75 8 1.75C9.79493 1.75 11.25 3.20507 11.25 5C11.25 6.79493 9.79493 8.25 8 8.25C6.20507 8.25 4.75 6.79493 4.75 5Z" fill="#067647"/>
<path d="M14 0.25C13.5858 0.25 13.25 0.585786 13.25 1C13.25 1.41421 13.5858 1.75 14 1.75C15.7949 1.75 17.25 3.20507 17.25 5C17.25 6.79493 15.7949 8.25 14 8.25C13.5858 8.25 13.25 8.58579 13.25 9C13.25 9.41421 13.5858 9.75 14 9.75C16.6234 9.75 18.75 7.62335 18.75 5C18.75 2.37665 16.6234 0.25 14 0.25Z" fill="#067647"/>
<path fill-rule="evenodd" clip-rule="evenodd" d="M0.25 17C0.25 13.8244 2.82436 11.25 6 11.25H10C13.1756 11.25 15.75 13.8244 15.75 17C15.75 18.5188 14.5188 19.75 13 19.75H3C1.48122 19.75 0.25 18.5188 0.25 17ZM6 12.75C3.65279 12.75 1.75 14.6528 1.75 17C1.75 17.6904 2.30964 18.25 3 18.25H13C13.6904 18.25 14.25 17.6904 14.25 17C14.25 14.6528 12.3472 12.75 10 12.75H6Z" fill="#067647"/>
<path d="M16 11.25C15.5858 11.25 15.25 11.5858 15.25 12C15.25 12.4142 15.5858 12.75 16 12.75C18.3472 12.75 20.25 14.6528 20.25 17C20.25 17.6904 19.6904 18.25 19 18.25H17.5C17.0858 18.25 16.75 18.5858 16.75 19C16.75 19.4142 17.0858 19.75 17.5 19.75H19C20.5188 19.75 21.75 18.5188 21.75 17C21.75 13.8244 19.1756 11.25 16 11.25Z" fill="#067647"/>
</svg>
