<svg width="18" height="18" viewBox="0 0 18 18" fill="none" xmlns="http://www.w3.org/2000/svg">
<path fill-rule="evenodd" clip-rule="evenodd" d="M6.08333 6.91666C6.08333 5.30583 7.38917 4 9 4C10.6108 4 11.9167 5.30583 11.9167 6.91666C11.9167 8.52749 10.6108 9.83333 9 9.83333C7.38917 9.83333 6.08333 8.52749 6.08333 6.91666ZM9 5.25C8.07952 5.25 7.33333 5.99619 7.33333 6.91666C7.33333 7.83714 8.07952 8.58333 9 8.58333C9.92047 8.58333 10.6667 7.83714 10.6667 6.91666C10.6667 5.99619 9.92047 5.25 9 5.25Z" fill="#161616"/>
<path fill-rule="evenodd" clip-rule="evenodd" d="M0.041666 9C0.041666 4.05245 4.05245 0.0416641 9 0.0416641C13.9475 0.0416641 17.9583 4.05245 17.9583 9C17.9583 13.9475 13.9475 17.9583 9 17.9583C4.05245 17.9583 0.041666 13.9475 0.041666 9ZM9 1.29166C4.7428 1.29166 1.29167 4.7428 1.29167 9C1.29167 10.9762 2.03534 12.7787 3.25809 14.143L3.50778 13.706C4.36091 12.213 5.94859 11.2917 7.66812 11.2917H10.3321C12.0516 11.2917 13.6393 12.213 14.4924 13.706L14.742 14.1428C15.9647 12.7786 16.7083 10.9761 16.7083 9C16.7083 4.7428 13.2572 1.29166 9 1.29166ZM13.8071 15.0262L13.4071 14.3262C12.7766 13.2227 11.603 12.5417 10.3321 12.5417H7.66812C6.39717 12.5417 5.22366 13.2227 4.59309 14.3262L4.19303 15.0263C5.51104 16.079 7.18202 16.7083 9 16.7083C10.818 16.7083 12.4891 16.0789 13.8071 15.0262Z" fill="#161616"/>
</svg>
