<svg width="22" height="22" viewBox="0 0 22 22" fill="none" xmlns="http://www.w3.org/2000/svg">
<path fill-rule="evenodd" clip-rule="evenodd" d="M4.31629 0.286323C4.88297 0.403448 5.33427 0.784187 5.61466 1.28722L6.50787 2.88966C6.83688 3.47986 7.11375 3.97655 7.29457 4.40832C7.48637 4.86634 7.60029 5.318 7.54821 5.81736C7.49614 6.31672 7.29148 6.73516 7.00931 7.14375C6.7433 7.52892 6.36991 7.9578 5.92621 8.46742L3.69835 11.0265C5.46519 13.9224 8.07413 16.5325 10.9731 18.3012L13.5321 16.0733C14.0417 15.6296 14.4706 15.2562 14.8558 14.9902C15.2644 14.708 15.6828 14.5034 16.1822 14.4513C16.6815 14.3992 17.1332 14.5132 17.5912 14.705C18.023 14.8858 18.5197 15.1627 19.1099 15.4917L20.7123 16.3849C21.2153 16.6653 21.5961 17.1166 21.7132 17.6832C21.8316 18.2558 21.657 18.8314 21.2714 19.3044C19.8725 21.0208 17.6313 22.1136 15.28 21.6393C13.8348 21.3478 12.4088 20.8621 10.6841 19.873C7.21872 17.8856 4.11165 14.7768 2.12658 11.3155C1.13746 9.59075 0.651743 8.16476 0.3602 6.7195C-0.114096 4.36827 0.978738 2.12699 2.6951 0.72809C3.16814 0.342548 3.74368 0.167976 4.31629 0.286323ZM12.3702 19.0737C13.5366 19.6484 14.5511 19.9621 15.5766 20.1689C17.2727 20.5111 18.985 19.7355 20.1087 18.3568C20.2563 18.1757 20.2572 18.0494 20.2443 17.9869C20.2301 17.9184 20.1728 17.8015 19.982 17.6951L18.4155 16.8219C17.7798 16.4676 17.3567 16.233 17.0118 16.0885C16.6844 15.9515 16.4966 15.9267 16.3378 15.9432C16.1789 15.9598 16.0002 16.0228 15.7082 16.2245C15.4005 16.437 15.0349 16.7538 14.486 17.2317L12.3702 19.0737ZM2.92588 9.62932L4.76786 7.51352C5.24569 6.96466 5.56257 6.599 5.77504 6.29135C5.97672 5.99931 6.03974 5.82062 6.0563 5.66178C6.07287 5.50294 6.04808 5.31509 5.91099 4.98773C5.76657 4.64285 5.53194 4.21968 5.17763 3.58404L4.30445 2.01753C4.19807 1.82669 4.08109 1.76942 4.01268 1.75528C3.95018 1.74236 3.8238 1.74326 3.64277 1.89081C2.26399 3.01457 1.48845 4.72684 1.83058 6.42289C2.03747 7.44847 2.35115 8.46294 2.92588 9.62932Z" fill="#1B8354"/>
</svg>
