<svg width="24" height="24" viewBox="0 0 24 24" fill="none" xmlns="http://www.w3.org/2000/svg">
<path fill-rule="evenodd" clip-rule="evenodd" d="M18.0003 8.75195C17.9169 8.75195 17.8326 8.73754 17.75 8.7088V9.73193C17.75 11.4065 17.031 12.9997 15.8234 14.0972L16.5939 16.4079L17.9729 16.869C19.014 17.213 19.5379 17.392 20.0439 17.677C20.0469 17.6785 20.0497 17.6802 20.0524 17.6819C20.0552 17.6837 20.0579 17.6854 20.0609 17.6869C20.5699 17.9919 21.019 18.354 21.395 18.763C21.854 19.266 22.752 20.778 22.752 22.001C22.752 22.415 22.416 22.751 22.002 22.751L22.001 22.752C21.587 22.752 21.251 22.416 21.251 22.002C21.251 21.274 20.582 20.0999 20.288 19.7779C20.014 19.4789 19.6799 19.211 19.2979 18.981C18.9149 18.767 18.442 18.6059 17.499 18.2949L16.171 17.851L15.095 18.794L15.0935 18.7953C13.7595 19.9544 13.0246 20.593 12.001 20.593C10.977 20.593 10.241 19.954 8.90698 18.794L8.87798 18.769L7.82998 17.851L6.50396 18.294C5.55896 18.607 5.08498 18.767 4.70298 18.981C4.32098 19.211 3.98699 19.48 3.71099 19.78C3.41899 20.1 2.75 21.275 2.75 22.002C2.75 22.416 2.414 22.752 2 22.752C1.586 22.752 1.25 22.416 1.25 22.002C1.25 20.779 2.14698 19.2679 2.60498 18.7659C2.98198 18.3559 3.43099 17.994 3.93999 17.688C3.94299 17.6865 3.94574 17.6847 3.94849 17.683C3.95123 17.6812 3.95398 17.6794 3.95698 17.6779C4.46298 17.3929 4.98698 17.214 6.02998 16.869L7.40596 16.409L8.17659 14.098C6.97007 13.0022 6.25 11.4078 6.25 9.73193V8.70984C5.86722 8.84438 5.44423 8.64857 5.30028 8.26699C5.15428 7.87899 5.35029 7.44698 5.73729 7.30098L5.75773 7.29329L5.57378 6.93799C4.93678 5.70399 4.55478 4.96393 4.84878 4.15693C5.16068 3.32122 5.92324 3.07609 7.18545 2.67035L7.18677 2.66992L11.1588 1.41992C11.4708 1.31592 11.6797 1.25391 11.9357 1.25391C12.1917 1.25391 12.3998 1.317 12.7118 1.421L16.9448 2.75898C18.0548 3.10998 18.7888 3.34291 19.1168 4.10791C19.4311 4.82726 19.156 5.53866 18.7009 6.7158L18.6978 6.72393L18.4387 7.39215C18.7091 7.58488 18.8268 7.94215 18.7043 8.26699C18.5913 8.56699 18.3052 8.75293 18.0022 8.75293L18.0003 8.75195ZM9.4564 15.0029L8.86899 16.7659L9.88994 17.66C11.0319 18.652 11.555 19.0909 12 19.0909C12.445 19.0909 12.969 18.652 14.11 17.66L14.139 17.635L15.131 16.765L14.544 15.0034L14.455 15.059C13.696 15.52 12.847 15.751 11.999 15.751C11.153 15.751 10.3069 15.522 9.55293 15.063L9.4564 15.0029ZM7.75 9.73193V8.2447C9.05462 7.92047 10.4982 7.75195 12.0013 7.75195C13.5035 7.75195 14.9458 7.92028 16.25 8.24416V9.73193C16.25 11.2529 15.458 12.6829 14.176 13.4649L13.6689 13.781C12.6399 14.406 11.361 14.406 10.339 13.785L9.81894 13.4619C8.54295 12.6829 7.75 11.2539 7.75 9.73193ZM17.0232 6.89687L17.3008 6.18096C17.5518 5.53296 17.8108 4.86195 17.7418 4.70195C17.682 4.56331 17.0809 4.3729 16.4983 4.18834L12.2458 2.84395L12.2314 2.83919C12.1462 2.8111 11.9782 2.75573 11.9348 2.75195C11.8928 2.75595 11.7068 2.81695 11.6268 2.84395L11.6158 2.84795L7.64478 4.09795C6.99078 4.30795 6.31279 4.526 6.25679 4.675C6.1902 4.85788 6.51677 5.49219 6.8958 6.22843L6.90279 6.24199L7.21003 6.83547C8.68118 6.4523 10.3103 6.25293 12.0022 6.25293C13.7823 6.25293 15.493 6.47362 17.0232 6.89687Z" fill="#067647"/>
</svg>
