<svg width="22" height="22" viewBox="0 0 22 22" fill="none" xmlns="http://www.w3.org/2000/svg">
<path d="M4.31746 21.75C3.88772 21.75 3.448 21.71 3.01826 21.6301C2.75843 21.5801 2.53857 21.4002 2.44862 21.1503C2.35868 20.9004 2.40865 20.6205 2.56855 20.4206C3.03826 19.8409 3.35806 19.1512 3.49797 18.4016C3.53794 18.1717 3.41801 17.8918 3.17816 17.6419C1.28935 15.7228 0.25 13.204 0.25 10.5652C0.25 4.87784 5.06699 0.25 10.9933 0.25C11.403 0.25 11.7428 0.589842 11.7428 0.999652C11.7428 1.40946 11.403 1.7493 10.9933 1.7493C5.89647 1.7493 1.74906 5.70746 1.74906 10.5652C1.74906 12.8142 2.63851 14.9532 4.2475 16.5924C4.84712 17.1921 5.10696 17.9618 4.96705 18.6814C4.86711 19.2312 4.68722 19.7509 4.44737 20.2407C5.33681 20.2207 6.21626 19.9908 7.01576 19.571L7.09523 19.5298C7.58164 19.2773 7.82937 19.1487 8.09509 19.1012C8.37492 19.0613 8.65474 19.1012 9.1944 19.2112C9.78403 19.3211 10.3837 19.3511 10.9933 19.3811C16.0901 19.3811 20.2375 15.4329 20.2375 10.5652C20.2375 9.76557 20.1276 8.97593 19.9077 8.20629C19.7878 7.80648 20.0176 7.39668 20.4174 7.27673C20.8171 7.15679 21.2269 7.38668 21.3468 7.78649C21.6066 8.68607 21.7366 9.61564 21.7366 10.5652C21.7366 16.2526 16.9196 20.8804 10.9933 20.8804C10.3537 20.8804 9.60415 20.8204 8.92457 20.6905C8.64474 20.6405 8.4049 20.6005 8.31495 20.5905C8.27498 20.6105 8.01514 20.7405 7.74531 20.8904C6.67598 21.4601 5.49672 21.75 4.31746 21.75Z" fill="#067647"/>
<path d="M15.0008 7.75634H14.9608C14.6909 7.74634 14.4511 7.58641 14.3312 7.34652C13.6016 5.87721 12.952 5.75727 12.942 5.75727C12.5323 5.75727 12.2225 5.42742 12.2225 5.00761C12.2225 4.58781 12.5823 4.25796 13.002 4.25796C13.2019 4.25796 14.0913 4.33793 15.0407 5.61733C16.16 4.04806 18.5086 1.08943 20.7472 0.299797C21.1369 0.159862 21.5666 0.369771 21.7066 0.75959C21.8465 1.14941 21.6366 1.57922 21.2468 1.71915C19.1282 2.4688 16.4798 6.08712 15.6304 7.4165C15.4904 7.6364 15.2506 7.76633 15.0008 7.76633V7.75634Z" fill="#067647"/>
<path d="M14.0014 11.0052C14.0014 11.5552 14.4511 12.0052 15.0008 12.0052C15.5505 12.0052 16.0002 11.5552 16.0002 11.0052C16.0002 10.4552 15.5505 10.0052 15.0008 10.0052C14.4412 10.0052 14.0014 10.4552 14.0014 11.0052Z" fill="#067647"/>
<path d="M10.0039 11.0052C10.0039 11.5552 10.4536 12.0052 11.0033 12.0052C11.553 12.0052 12.0027 11.5552 12.0027 11.0052C12.0027 10.4552 11.553 10.0052 11.0033 10.0052C10.4437 10.0052 10.0039 10.4552 10.0039 11.0052Z" fill="#067647"/>
<path d="M6.01642 11.0052C6.01642 11.5552 6.46614 12.0052 7.01579 12.0052C7.56545 12.0052 8.01517 11.5552 8.01517 11.0052C8.01517 10.4552 7.56545 10.0052 7.01579 10.0052C6.45614 10.0052 6.01642 10.4552 6.01642 11.0052Z" fill="#067647"/>
</svg>
