<svg width="22" height="22" viewBox="0 0 22 22" fill="none" xmlns="http://www.w3.org/2000/svg">
<path d="M8.25 6.5C8.25 5.87939 8.8316 5.25 9.5 5.25C10.2531 5.25 10.75 5.79512 10.75 6.33333C10.75 6.53509 10.6865 6.72611 10.5693 6.89315C10.4455 7.06951 10.2896 7.2531 10.1043 7.46424L10.0135 7.56733C9.85838 7.74326 9.68666 7.93796 9.52998 8.13536C9.16359 8.59694 8.75 9.22548 8.75 10C8.75 10.4142 9.08579 10.75 9.5 10.75C9.91421 10.75 10.25 10.4142 10.25 10C10.25 9.762 10.3791 9.4783 10.7049 9.06792C10.8351 8.9038 10.9761 8.74389 11.1307 8.56844L11.2316 8.45377C11.4179 8.24155 11.6219 8.00434 11.797 7.75496C12.0808 7.35062 12.25 6.86152 12.25 6.33333C12.25 4.8465 10.956 3.75 9.5 3.75C7.95926 3.75 6.75 5.09556 6.75 6.5C6.75 6.91421 7.08579 7.25 7.5 7.25C7.91421 7.25 8.25 6.91421 8.25 6.5Z" fill="#067647"/>
<path d="M9.5 11.5C8.94771 11.5 8.5 11.9477 8.5 12.5C8.5 13.0523 8.94771 13.5 9.5 13.5H9.50898C10.0613 13.5 10.509 13.0523 10.509 12.5C10.509 11.9477 10.0613 11.5 9.50898 11.5H9.5Z" fill="#067647"/>
<path fill-rule="evenodd" clip-rule="evenodd" d="M11.2856 0.80772C10.1112 0.730681 8.88642 0.730839 7.71442 0.80772C3.99196 1.05191 1.02769 4.01936 0.783795 7.74367C0.738735 8.43173 0.738735 9.14322 0.783795 9.83128C0.874981 11.2237 1.48802 12.4713 2.15939 13.4732C2.31253 13.7752 2.24658 14.2726 1.87879 14.9604L1.85895 14.9975C1.73613 15.227 1.60825 15.4659 1.53332 15.6729C1.453 15.8947 1.35578 16.2848 1.58715 16.6741C1.79686 17.0269 2.1296 17.1504 2.37853 17.198C2.58113 17.2366 2.826 17.2424 3.04095 17.2474L3.08153 17.2484C4.24981 17.2764 5.08103 16.9424 5.74025 16.4627C5.83016 16.3973 5.89844 16.3477 5.95249 16.3095C6.03612 16.3416 6.1449 16.3857 6.29281 16.4458C6.74146 16.6282 7.24859 16.7367 7.71442 16.7672C8.88642 16.8441 10.1112 16.8443 11.2856 16.7672C15.008 16.523 17.9723 13.5556 18.2162 9.83128C18.2613 9.14322 18.2613 8.43173 18.2162 7.74367C17.9723 4.01936 15.008 1.05191 11.2856 0.80772ZM7.81261 2.3045C8.91929 2.23191 10.0785 2.23176 11.1874 2.3045C14.1577 2.49935 16.5246 4.86755 16.7194 7.84169C16.7602 8.46447 16.7602 9.11048 16.7194 9.73326C16.5246 12.7074 14.1577 15.0756 11.1874 15.2704C10.0785 15.3432 8.91928 15.343 7.81261 15.2704C7.49375 15.2495 7.14558 15.1733 6.8576 15.0562L6.83934 15.0488C6.65011 14.9719 6.48115 14.9032 6.34699 14.8566L6.34244 14.8551C6.24087 14.8198 6.01004 14.7396 5.766 14.7693C5.52961 14.798 5.33967 14.9168 5.24826 14.9752C5.14013 15.0443 5.01091 15.1383 4.87408 15.2379L4.85764 15.2499C4.45794 15.5407 3.95682 15.7612 3.15783 15.7496L3.20155 15.6677C3.60328 14.9165 4.03646 13.7546 3.45679 12.7189C3.44661 12.7007 3.43567 12.683 3.42401 12.6657C2.81649 11.7654 2.34821 10.7658 2.28059 9.73326C2.2398 9.11048 2.2398 8.46447 2.28059 7.84169C2.47536 4.86755 4.84225 2.49935 7.81261 2.3045Z" fill="#067647"/>
<path d="M19.5951 8.81547C19.9733 8.64645 20.4169 8.81598 20.5859 9.19414C20.9378 9.98134 21.1571 10.8409 21.2162 11.7439C21.2613 12.4319 21.2613 13.1434 21.2162 13.8315C21.125 15.2239 20.512 16.4715 19.8406 17.4733C19.6875 17.7753 19.7534 18.2728 20.1212 18.9606L20.1411 18.9977C20.2639 19.2272 20.3918 19.4661 20.4667 19.6731C20.547 19.8949 20.6442 20.285 20.4129 20.6742C20.2032 21.0271 19.8704 21.1506 19.6215 21.1981C19.4189 21.2368 19.174 21.2426 18.9591 21.2476L18.9185 21.2485C17.7502 21.2766 16.919 20.9426 16.2598 20.4629C16.1699 20.3975 16.1016 20.3479 16.0475 20.3097C15.9639 20.3418 15.8551 20.3859 15.7072 20.446C15.2586 20.6284 14.7514 20.7369 14.2856 20.7674C13.1136 20.8443 11.8888 20.8445 10.7144 20.7674C9.09507 20.6612 7.6833 20.0396 6.52171 19.0779C6.20266 18.8137 6.15817 18.3409 6.42233 18.0219C6.6865 17.7028 7.15928 17.6583 7.47833 17.9225C8.41751 18.7001 9.53398 19.1868 10.8126 19.2706C11.9216 19.3434 13.0807 19.3432 14.1874 19.2706C14.5063 19.2497 14.8544 19.1734 15.1424 19.0564L15.1607 19.049C15.3499 18.972 15.5188 18.9034 15.653 18.8568L15.6576 18.8553C15.7591 18.82 15.99 18.7398 16.234 18.7694C16.4704 18.7981 16.6603 18.917 16.7518 18.9754C16.8598 19.0444 16.9889 19.1383 17.1256 19.2378L17.1424 19.25C17.5421 19.5409 18.0432 19.7614 18.8422 19.7497L18.7985 19.6679C18.3967 18.9166 17.9636 17.7548 18.5432 16.7191C18.5534 16.7009 18.5643 16.6832 18.576 16.6659C19.1835 15.7656 19.6518 14.766 19.7194 13.7334C19.7602 13.1107 19.7602 12.4647 19.7194 11.8419C19.6721 11.1193 19.4969 10.4336 19.2165 9.80623C19.0475 9.42807 19.217 8.98449 19.5951 8.81547Z" fill="#067647"/>
</svg>
