<svg width="18" height="18" viewBox="0 0 18 18" fill="none" xmlns="http://www.w3.org/2000/svg">
<path fill-rule="evenodd" clip-rule="evenodd" d="M8.66667 5.04166C6.66461 5.04166 5.04166 6.66461 5.04166 8.66667C5.04166 10.6687 6.66461 12.2917 8.66667 12.2917C9.44199 12.2917 10.1605 12.0483 10.7498 11.6337L11.8914 12.7753C12.1355 13.0194 12.5312 13.0194 12.7753 12.7753C13.0194 12.5312 13.0194 12.1355 12.7753 11.8914L11.6337 10.7498C12.0483 10.1605 12.2917 9.44199 12.2917 8.66667C12.2917 6.66461 10.6687 5.04166 8.66667 5.04166ZM6.29166 8.66667C6.29166 7.35497 7.35497 6.29166 8.66667 6.29166C9.97836 6.29166 11.0417 7.35497 11.0417 8.66667C11.0417 9.97836 9.97836 11.0417 8.66667 11.0417C7.35497 11.0417 6.29166 9.97836 6.29166 8.66667Z" fill="#161616"/>
<path fill-rule="evenodd" clip-rule="evenodd" d="M9 0.0416641C4.05244 0.0416641 0.0416641 4.05244 0.0416641 9C0.0416641 13.9475 4.05244 17.9583 9 17.9583C13.9475 17.9583 17.9583 13.9475 17.9583 9C17.9583 4.05244 13.9475 0.0416641 9 0.0416641ZM1.29166 9C1.29166 4.7428 4.7428 1.29166 9 1.29166C13.2572 1.29166 16.7083 4.7428 16.7083 9C16.7083 13.2572 13.2572 16.7083 9 16.7083C4.7428 16.7083 1.29166 13.2572 1.29166 9Z" fill="#161616"/>
</svg>
