<svg width="24" height="24" viewBox="0 0 24 24" fill="none" xmlns="http://www.w3.org/2000/svg">
<path d="M11.0001 1.25C5.61528 1.25 1.25006 5.61522 1.25006 11C1.25006 16.3848 5.61528 20.75 11.0001 20.75C13.4227 20.75 15.6367 19.8638 17.3419 18.4014L21.4698 22.5303C21.7627 22.8232 22.2374 22.8232 22.5303 22.5303C22.8232 22.2374 22.8232 21.7626 22.5303 21.4697L18.4024 17.3408C19.8643 15.6358 20.7501 13.4221 20.7501 11C20.7501 5.61522 16.3848 1.25 11.0001 1.25ZM11.0001 2.75C15.5564 2.75 19.2501 6.44365 19.2501 11C19.2501 15.5563 15.5564 19.25 11.0001 19.25C6.44371 19.25 2.75006 15.5563 2.75006 11C2.75006 6.44365 6.44371 2.75 11.0001 2.75Z" fill="white"/>
</svg>
