<svg width="18" height="18" viewBox="0 0 18 18" fill="none" xmlns="http://www.w3.org/2000/svg">
<path d="M8.9991 17.1248H9C12.7033 17.1248 14.5617 17.1248 15.8433 15.8431C17.055 14.6298 17.1175 12.8289 17.1233 9.75057C17.1233 9.40557 16.8442 9.12476 16.4992 9.12476H16.4975C16.1525 9.12476 15.8725 9.40394 15.8725 9.74894C15.8667 12.7414 15.7792 14.1389 14.9583 14.9597C14.0425 15.8747 12.3575 15.8748 8.99919 15.8748C5.64085 15.8748 3.955 15.8747 3.04 14.9597C2.125 14.0439 2.125 12.3581 2.125 8.99977C2.125 5.64144 2.12502 3.95563 3.04085 3.03979C3.86085 2.21896 5.25831 2.13059 8.25081 2.12476C8.59665 2.12476 8.875 1.84394 8.875 1.49894C8.87417 1.15394 8.595 0.874756 8.25 0.874756H8.24833C5.16916 0.880589 3.36832 0.943079 2.15666 2.15641C0.875 3.43724 0.875 5.29639 0.875 8.99967C0.875 12.7029 0.875 14.5614 2.15666 15.8431C3.43748 17.1248 5.29666 17.1248 8.9991 17.1248Z" fill="#1B8354"/>
<path d="M7.76675 10.3248C7.88925 10.4457 8.04841 10.5065 8.20758 10.5065C8.36842 10.5065 8.5284 10.444 8.6509 10.3215L15.8001 3.13067C15.8492 3.63567 15.8876 4.43318 15.8701 5.67901C15.8651 6.02485 16.1409 6.30813 16.4859 6.31313C16.8326 6.32146 17.1151 6.04232 17.1201 5.69732C17.1717 2.07301 16.7821 1.68182 16.5728 1.47176C16.3628 1.26172 15.9718 0.870686 12.3501 0.922341C12.0051 0.927341 11.7292 1.21146 11.7342 1.55646C11.7392 1.89812 12.0184 2.17234 12.3592 2.17234H12.3684C13.6192 2.15484 14.4175 2.19314 14.9209 2.24314L7.76422 9.44065C7.52089 9.68565 7.52175 10.0815 7.76675 10.3248Z" fill="#1B8354"/>
</svg>
