<svg width="24" height="24" viewBox="0 0 24 24" fill="none" xmlns="http://www.w3.org/2000/svg">
<path fill-rule="evenodd" clip-rule="evenodd" d="M5.74976 6.5C5.74976 3.6005 8.10026 1.25 10.9998 1.25C13.8993 1.25 16.2498 3.6005 16.2498 6.5C16.2498 9.39949 13.8993 11.75 10.9998 11.75C8.10026 11.75 5.74976 9.39949 5.74976 6.5ZM10.9998 2.75C8.92869 2.75 7.24976 4.42893 7.24976 6.5C7.24976 8.57107 8.92869 10.25 10.9998 10.25C13.0708 10.25 14.7498 8.57107 14.7498 6.5C14.7498 4.42893 13.0708 2.75 10.9998 2.75Z" fill="#067647"/>
<path d="M11.9302 14.7933C9.87566 14.6014 7.77314 15.0471 5.96122 16.126C5.7934 16.2259 5.60952 16.3302 5.4169 16.4395C4.7043 16.8438 3.87199 17.316 3.2919 17.8838C2.93177 18.2363 2.77826 18.5271 2.7537 18.7517C2.7342 18.9301 2.7793 19.2242 3.22993 19.6535C4.26578 20.6404 5.31835 21.25 6.5908 21.25H12.9999C13.4141 21.25 13.7499 21.5858 13.7499 22C13.7499 22.4142 13.4141 22.75 12.9999 22.75H6.5908C4.77249 22.75 3.36671 21.8556 2.19526 20.7396C1.51624 20.0927 1.17778 19.3646 1.26258 18.5887C1.34233 17.8592 1.78098 17.2637 2.24265 16.8118C2.98082 16.0893 4.05833 15.4814 4.77114 15.0793C4.93381 14.9875 5.07748 14.9064 5.1938 14.8372C7.28788 13.5903 9.7096 13.0793 12.0697 13.2998C12.4821 13.3384 12.7852 13.704 12.7467 14.1164C12.7081 14.5288 12.3426 14.8319 11.9302 14.7933Z" fill="#067647"/>
<path fill-rule="evenodd" clip-rule="evenodd" d="M17.9991 13.25C17.1972 13.25 16.5532 13.5091 16.0278 13.7677C15.8494 13.8555 15.6951 13.9364 15.5548 14.01C15.2449 14.1725 15.0035 14.2991 14.7228 14.3842L14.7024 14.3904C14.5226 14.4449 14.3553 14.4956 14.2244 14.5443C14.1122 14.5861 13.8936 14.6706 13.7236 14.8501C13.5737 15.0084 13.5028 15.1818 13.4624 15.3163C13.429 15.4272 13.4049 15.555 13.3851 15.6593L13.3812 15.6802C12.8238 18.617 14.053 21.4561 17.0657 22.5518L17.0897 22.5606C17.3629 22.66 17.6099 22.75 18.0005 22.75C18.391 22.75 18.638 22.66 18.9112 22.5606L18.9352 22.5518C21.9479 21.456 23.1758 18.6167 22.6183 15.6802L22.6144 15.6593C22.5946 15.5549 22.5704 15.4272 22.5371 15.3162C22.4967 15.1817 22.4258 15.0083 22.2758 14.85C22.1058 14.6705 21.8872 14.586 21.7749 14.5442C21.644 14.4955 21.4768 14.4449 21.297 14.3904L21.2766 14.3842C20.9957 14.2991 20.7541 14.1725 20.4439 14.0099C20.3036 13.9363 20.1492 13.8554 19.9708 13.7676C19.4451 13.5091 18.8009 13.25 17.9991 13.25ZM16.372 15.2772C16.4866 15.2172 16.5936 15.161 16.6901 15.1135C17.1347 14.8947 17.5345 14.75 17.9991 14.75C18.4637 14.75 18.8638 14.8948 19.3087 15.1136C19.4054 15.1612 19.5123 15.2173 19.627 15.2774C19.9839 15.4645 20.4151 15.6905 20.8417 15.8198C20.968 15.858 21.0623 15.8868 21.1352 15.9102L21.1447 15.9599C21.5889 18.3 20.6299 20.3392 18.4224 21.1422C18.1444 21.2433 18.1139 21.25 18.0004 21.25C17.887 21.25 17.8565 21.2433 17.5784 21.1422C15.3705 20.3391 14.4108 18.2998 14.8549 15.9599L14.8643 15.9102C14.9372 15.8867 15.0316 15.858 15.1579 15.8197C15.5843 15.6905 16.0154 15.4643 16.372 15.2772Z" fill="#067647"/>
</svg>
