<svg width="22" height="22" viewBox="0 0 22 22" fill="none" xmlns="http://www.w3.org/2000/svg">
<path d="M9.74349 0.5H11.7569C13.7241 0.499986 15.2769 0.499974 16.491 0.663204C17.7383 0.8309 18.7398 1.18315 19.5284 1.97179C20.3171 2.76043 20.6693 3.76192 20.837 5.00923C21.0002 6.22332 21.0002 7.77613 21.0002 9.74328V11.25C21.0002 11.6642 20.6644 12 20.2502 12C19.836 12 19.5002 11.6642 19.5002 11.25V9.8C19.5002 7.76354 19.4986 6.31165 19.3504 5.2091C19.2051 4.12812 18.9312 3.49593 18.4678 3.03245C18.0043 2.56897 17.3721 2.29516 16.2911 2.14983C15.1886 2.00159 13.7367 2 11.7002 2H9.80021C7.76376 2 6.31186 2.00159 5.20931 2.14983C4.12834 2.29516 3.49615 2.56897 3.03266 3.03245C2.56918 3.49593 2.29537 4.12812 2.15004 5.2091C2.00181 6.31165 2.00021 7.76354 2.00021 9.8V11.7C2.00021 13.7365 2.00181 15.1884 2.15004 16.2909C2.29537 17.3719 2.56918 18.0041 3.03266 18.4676C3.49615 18.931 4.12834 19.2048 5.20931 19.3502C6.31186 19.4984 7.76376 19.5 9.80021 19.5H11.2502C11.6644 19.5 12.0002 19.8358 12.0002 20.25C12.0002 20.6642 11.6644 21 11.2502 21H9.7435C7.77634 21 6.22353 21 5.00944 20.8368C3.76213 20.6691 2.76064 20.3168 1.972 19.5282C1.18337 18.7396 0.831113 17.7381 0.663417 16.4908C0.500187 15.2767 0.500199 13.7239 0.500214 11.7567V9.74328C0.500199 7.77613 0.500187 6.22332 0.663417 5.00923C0.831113 3.76192 1.18337 2.76043 1.972 1.97179C2.76064 1.18315 3.76213 0.8309 5.00944 0.663204C6.22353 0.499974 7.77634 0.499986 9.74349 0.5Z" fill="#067647"/>
<path fill-rule="evenodd" clip-rule="evenodd" d="M16.9999 13.9916C16.2613 13.4834 15.087 13.2148 13.82 13.9633C12.8574 14.5318 12.3595 15.6918 12.535 16.9517C12.7116 18.2201 13.5507 19.5711 15.1919 20.7409L15.2631 20.7917C15.7814 21.1622 16.2539 21.5 16.9999 21.5C17.7458 21.5 18.2183 21.1622 18.7366 20.7917L18.8078 20.7409C20.449 19.5711 21.2881 18.2201 21.4647 16.9517C21.6402 15.6918 21.1423 14.5318 20.1798 13.9633C18.9127 13.2148 17.7384 13.4834 16.9999 13.9916ZM16.1725 15.2434C15.8527 15.0122 15.2971 14.8329 14.5828 15.2548C14.2256 15.4658 13.9143 15.9815 14.0206 16.7448C14.1258 17.4997 14.6595 18.5194 16.0625 19.5194C16.6752 19.9561 16.774 20 16.9999 20C17.2258 20 17.3245 19.9561 17.9372 19.5194C19.3402 18.5194 19.8739 17.4997 19.9791 16.7448C20.0854 15.9815 19.7741 15.4658 19.4169 15.2548C18.7026 14.8329 18.147 15.0122 17.8272 15.2434L17.812 15.2545C17.7174 15.3229 17.6193 15.3939 17.5366 15.446C17.4916 15.4744 17.4288 15.5116 17.3561 15.5433C17.2887 15.5726 17.1616 15.6202 16.9999 15.6202C16.8381 15.6202 16.711 15.5726 16.6436 15.5433C16.5709 15.5116 16.5081 15.4744 16.4632 15.446C16.3805 15.3939 16.2824 15.3229 16.1879 15.2546L16.1725 15.2434Z" fill="#067647"/>
<path fill-rule="evenodd" clip-rule="evenodd" d="M12.1855 7.92939L12.1088 7.88875C11.5643 7.59997 11.1012 7.35442 10.7161 7.20155C10.3224 7.04523 9.876 6.92808 9.40839 7.05176C9.09867 7.13368 8.81198 7.29038 8.57757 7.51111C8.21451 7.85299 8.09822 8.30488 8.04836 8.71607C8.00015 9.11364 8.00018 9.61966 8.00022 10.2042V10.2959C8.00018 10.8804 8.00015 11.3864 8.04836 11.784C8.09822 12.1952 8.21451 12.6471 8.57757 12.9889C8.81198 13.2097 9.09867 13.3664 9.40839 13.4483C9.876 13.572 10.3224 13.4548 10.7161 13.2985C11.1012 13.1456 11.5642 12.9001 12.1088 12.6113L12.1855 12.5707C12.7488 12.272 13.2269 12.0185 13.5757 11.7807C13.9247 11.5428 14.2952 11.2241 14.433 10.7356C14.5226 10.4177 14.5226 10.0824 14.433 9.76449C14.2952 9.27595 13.9247 8.95729 13.5757 8.71938C13.2269 8.48157 12.7488 8.22806 12.1855 7.92939ZM9.79192 8.5019C9.79343 8.5015 9.79769 8.50045 9.80708 8.50012C9.81706 8.49977 9.83521 8.50016 9.86404 8.50455C9.92515 8.51386 10.0189 8.53865 10.1627 8.59571C10.4616 8.7144 10.8512 8.91974 11.4438 9.23394C12.0567 9.55895 12.4594 9.77375 12.7308 9.95874C12.9275 10.0929 12.9811 10.164 12.9915 10.1799C13.0031 10.2262 13.0031 10.2738 12.9915 10.3201C12.9811 10.3361 12.9275 10.4071 12.7308 10.5413C12.4594 10.7263 12.0567 10.9411 11.4438 11.2661C10.8512 11.5803 10.4616 11.7856 10.1627 11.9043C10.0189 11.9614 9.92515 11.9862 9.86404 11.9955C9.83521 11.9999 9.81706 12.0003 9.80708 11.9999C9.79769 11.9996 9.79343 11.9985 9.79192 11.9981C9.7184 11.9787 9.65569 11.9431 9.60795 11.8988C9.59784 11.883 9.56282 11.8126 9.53745 11.6034C9.50154 11.3072 9.50022 10.8936 9.50022 10.25C9.50022 9.60639 9.50154 9.19285 9.53745 8.89662C9.56282 8.68743 9.59784 8.61701 9.60795 8.60123C9.65569 8.55693 9.7184 8.52134 9.79192 8.5019Z" fill="#067647"/>
</svg>
